<?xml version="1.0" standalone="no"?>
<!DOCTYPE svg PUBLIC "-//W3C//DTD SVG 1.1//EN" "http://www.w3.org/Graphics/SVG/1.1/DTD/svg11.dtd" >
<svg xmlns="http://www.w3.org/2000/svg">
<metadata></metadata>
<defs>
<font id="primelight" horiz-adv-x="1378" >
<font-face units-per-em="2048" ascent="1536" descent="-512" />
<missing-glyph horiz-adv-x="716" />
<glyph horiz-adv-x="0" />
<glyph horiz-adv-x="682" />
<glyph unicode=" "  horiz-adv-x="716" />
<glyph unicode="&#x09;" horiz-adv-x="716" />
<glyph unicode="&#xa0;" horiz-adv-x="716" />
<glyph unicode="!" horiz-adv-x="432" d="M115 27v94h80q12 0 19 -8t7 -19v-94h-80q-10 0 -18 8t-8 19zM117 293v1243h76q12 0 19 -8t7 -19v-1245h-76q-11 0 -18.5 8.5t-7.5 20.5z" />
<glyph unicode="&#x22;" horiz-adv-x="389" d="M47 1300v236h66q10 0 18 -8t8 -19v-157zM236 1300v236h61q11 0 19 -8t8 -19v-157z" />
<glyph unicode="#" horiz-adv-x="1503" d="M66 342l22 78q1 9 10 14.5t19 5.5h229l131 457h-252l23 78q7 22 28 22h228l98 340q1 9 10.5 16t18.5 7h80l-103 -363h475l99 340q8 23 28 23h80l-102 -363h223l-22 -77q-1 -9 -9.5 -16t-17.5 -7h-203l-131 -457h223l-22 -78q-1 -7 -10.5 -13.5t-18.5 -6.5h-199l-92 -322 q-7 -22 -28 -22h-80l96 344h-475l-92 -322q-3 -9 -11.5 -15.5t-17.5 -6.5h-82l98 344h-251zM449 440h477l131 457h-477z" />
<glyph unicode="$" horiz-adv-x="1136" d="M70 80v65q0 11 8 19t18 8h459v557l-383 127q-31 11 -52.5 40.5t-21.5 61.5v216q0 117 83 200.5t200 83.5h174v78h49q11 0 19 -7.5t8 -19.5v-51h413v-65q0 -11 -8 -19t-18 -8h-387v-571l381 -125q30 -11 51.5 -41t21.5 -62v-202q0 -117 -83.5 -201t-200.5 -84h-170v-80 h-49q-10 0 -18.5 8t-8.5 19v53h-485zM180 971q0 -10 8 -21t19 -16l348 -115v547h-174q-83 0 -142 -59t-59 -142v-194zM631 172h170q83 0 141.5 59t58.5 142v180q0 12 -7.5 23t-18.5 14l-344 115v-533z" />
<glyph unicode="%" horiz-adv-x="0" d="M0 1106v252q0 70 49.5 119t118.5 49h92q71 0 120.5 -49t49.5 -119v-252q0 -70 -50 -120t-120 -50h-92q-69 0 -118.5 50t-49.5 120zM59 0q676 1333 768 1513q3 8 12.5 14.5t18.5 6.5h78q-676 -1336 -768 -1516q-3 -7 -12.5 -12.5t-18.5 -5.5h-78zM90 1092q0 -32 23 -55 t55 -23h92q32 0 55 23t23 55v280q0 32 -23 55t-55 23h-92q-32 0 -55 -23t-23 -55v-280zM592 172v252q0 70 49.5 119t118.5 49h92q71 0 120.5 -49t49.5 -119v-252q0 -70 -50 -120t-120 -50h-92q-69 0 -118.5 50t-49.5 120zM682 158q0 -32 23 -55t55 -23h92q32 0 55 23t23 55 v280q0 32 -23 55t-55 23h-92q-32 0 -55 -23t-23 -55v-280z" />
<glyph unicode="&#x26;" horiz-adv-x="1394" d="M119 238v407q0 42 14 74t53 59l187 135l-135 127q-26 25 -42 62t-16 72v163q0 95 68.5 154t167.5 59h477v-270h-62q-9 0 -16.5 8t-7.5 17v159h-391q-56 0 -98 -38.5t-42 -92.5v-159q0 -44 31 -70l711 -742l110 95q22 19 39 2l45 -45l-133 -111l297 -301h-98q-27 0 -41 14 l-229 230q-207 -175 -283 -230q-19 -14 -45 -14h-326q-97 0 -166 69.5t-69 166.5zM217 225q0 -57 40 -96t97 -39h281q40 0 76 25l237 192l-506 541l-198 -150q-27 -22 -27 -55v-418z" />
<glyph unicode="'" horiz-adv-x="215" d="M47 1300v236h66q10 0 18 -8t8 -19v-157z" />
<glyph unicode="(" horiz-adv-x="462" d="M127 74v1222q0 117 76.5 197t195.5 98v-65q0 -10 -7.5 -20t-16.5 -13q-76 -21 -113 -75.5t-37 -127.5v-1218q0 -73 31.5 -120.5t118.5 -80.5q9 -3 16.5 -14t7.5 -21v-63q-118 18 -195 100t-77 201z" />
<glyph unicode=")" horiz-adv-x="489" d="M41 -164q0 10 8 21t17 14q87 33 118 80t31 121v1218q0 74 -36.5 128t-112.5 75q-9 3 -17 13t-8 20v65q119 -18 195.5 -98t76.5 -197v-1222q0 -119 -77 -201t-195 -100v63z" />
<glyph unicode="*" horiz-adv-x="612" d="M31 1128l198 125l-176 115q-18 18 -12 33l31 43l180 -129l-8 196q0 8 5.5 14.5t14.5 6.5h51l-8 -219l166 119v-2q6 6 14 4.5t13 -9.5l30 -43l-198 -129q15 -10 80.5 -52t99.5 -62q14 -10 6 -29q-2 -3 -13 -21t-16 -24l-182 131l8 -199q0 -9 -5.5 -14.5t-12.5 -5.5h-51 l6 217l-162 -117q-20 -8 -31 6z" />
<glyph unicode="+" horiz-adv-x="645" d="M41 731v51q0 10 8.5 18.5t18.5 8.5h186v217h53q11 0 19 -7.5t8 -19.5v-190h213v-49q0 -12 -8 -20.5t-19 -8.5h-186v-221h-53q-11 0 -19 8t-8 19v194h-213z" />
<glyph unicode="," horiz-adv-x="311" d="M96 106h68q10 0 18 -8t8 -18v-189l-94 -57v272z" />
<glyph unicode="-" horiz-adv-x="671" d="M53 707v59q0 10 8.5 18.5t18.5 8.5h489v-58q0 -12 -7.5 -20t-18.5 -8h-490z" />
<glyph unicode="." horiz-adv-x="411" d="M123 27v96h80q10 0 18 -8t8 -19v-96h-79q-10 0 -18.5 8t-8.5 19z" />
<glyph unicode="/" horiz-adv-x="909" d="M-4 0l766 1516q12 20 33 20h86l-766 -1516q-12 -20 -33 -20h-86z" />
<glyph unicode="0" horiz-adv-x="1304" d="M115 295v944q0 137 93.5 223t233.5 86h361q144 0 235.5 -82t91.5 -231v-940q0 -133 -95 -221t-232 -88h-361q-141 0 -234 82.5t-93 226.5zM219 295q0 -41 25 -96l661 1228q-52 27 -102 27h-361q-90 0 -156.5 -63t-66.5 -152v-944zM311 121q53 -41 131 -41h361 q90 0 155.5 63t65.5 152v944q0 69 -37 121z" />
<glyph unicode="1" horiz-adv-x="485" d="M51 1475v63h246q12 0 20.5 -8.5t8.5 -20.5v-1509h-78q-11 0 -20 8.5t-9 20.5v1417h-139q-12 0 -20.5 8.5t-8.5 20.5z" />
<glyph unicode="2" horiz-adv-x="1157" d="M92 0v301q0 40 25 86t59 66l713 497q21 12 34 35.5t13 48.5v199q0 101 -65 155t-160 54h-545q-12 0 -20.5 8t-8.5 20v68h574q137 0 230 -86t93 -227v-195q0 -40 -24.5 -90t-57.5 -70l-706 -489q-21 -12 -34 -35.5t-13 -48.5v-205h837q12 0 20.5 -8.5t8.5 -20.5v-63h-973z " />
<glyph unicode="3" horiz-adv-x="1077" d="M72 0v63q0 11 8 20t20 9h533q89 0 151 56.5t62 144.5v383q0 32 -22.5 54t-53.5 22h-565q-12 0 -20.5 8t-8.5 20v64h594q31 0 53.5 22.5t22.5 53.5v333q0 86 -61.5 139.5t-151.5 53.5h-512q-12 0 -20.5 8.5t-8.5 20.5v63h541q138 0 225.5 -76.5t87.5 -210.5v-340 q0 -37 -21.5 -66.5t-54.5 -43.5q33 -12 54.5 -42.5t21.5 -66.5v-401q0 -131 -88.5 -211t-224.5 -80h-561z" />
<glyph unicode="4" horiz-adv-x="1171" d="M55 416v108q0 18 15 43l718 971h107q12 0 20.5 -8.5t8.5 -20.5v-1077h149q12 0 20.5 -9t8.5 -20v-65h-178v-338h-72q-12 0 -20.5 8.5t-8.5 20.5v309h-690q-32 0 -55 23t-23 55zM154 459q0 -11 8 -19t20 -8h641v989l-651 -868q-18 -22 -18 -49v-45z" />
<glyph unicode="5" horiz-adv-x="1136" d="M98 899v610q0 12 8.5 20.5t20.5 8.5h809v-63q0 -12 -8.5 -20.5t-20.5 -8.5h-717v-483q0 -11 8.5 -20t18.5 -9h471q134 0 223.5 -88t89.5 -221v-316q0 -133 -89.5 -221t-223.5 -88h-588v63q0 12 8.5 20.5t20.5 8.5h559q88 0 150.5 62.5t62.5 150.5v326q0 88 -62.5 150.5 t-150.5 62.5h-532q-25 0 -41.5 16t-16.5 39z" />
<glyph unicode="6" horiz-adv-x="1294" d="M133 313v901q0 134 95.5 229t228.5 95h604v-63q0 -12 -9 -20.5t-20 -8.5h-575q-89 0 -151 -62.5t-62 -150.5v-379q13 23 39 23h548q136 0 226 -82t90 -213v-277q0 -132 -90.5 -218.5t-225.5 -86.5h-374q-137 0 -230.5 90.5t-93.5 222.5zM244 305q0 -88 62 -150.5 t151 -62.5h374q88 0 150.5 62.5t62.5 150.5v281q0 86 -62 142t-151 56h-550q-3 0 -9 -1t-8 -1q-20 -7 -20 -28v-2v-447z" />
<glyph unicode="7" horiz-adv-x="1036" d="M35 1475v63h913q23 0 34.5 -16t4.5 -39l-627 -1456q-3 -11 -13.5 -19t-22.5 -8h-86l616 1419q3 11 -2.5 19t-17.5 8h-771q-12 0 -20 8.5t-8 20.5z" />
<glyph unicode="8" horiz-adv-x="1331" d="M111 313v203q0 69 29 133t83 109l39 37l-39 34q-54 47 -83 110.5t-29 131.5v154q0 133 94.5 228t228.5 95h430q133 0 225.5 -94.5t92.5 -228.5v-154q0 -148 -107 -242l-41 -34l41 -37q54 -46 83.5 -109.5t29.5 -132.5v-203q0 -133 -95 -227t-229 -94h-430 q-134 0 -228.5 94t-94.5 227zM221 295q0 -88 62 -149.5t151 -61.5h430q89 0 151 61.5t62 149.5v240q0 88 -62 150.5t-151 62.5h-430q-89 0 -151 -62.5t-62 -150.5v-240zM221 1055q0 -89 62 -151t151 -62h430q89 0 151 62t62 151v188q0 88 -62 150.5t-151 62.5h-430 q-89 0 -151 -62.5t-62 -150.5v-188z" />
<glyph unicode="9" horiz-adv-x="1275" d="M109 954v277q0 133 90 219t225 86h375q136 0 229.5 -90.5t93.5 -222.5v-901q0 -134 -95 -229t-228 -95h-645v63q0 12 8.5 20.5t19.5 8.5h617q90 0 155.5 63t65.5 150v379q-13 -23 -39 -23h-557q-136 0 -225.5 81.5t-89.5 213.5zM207 950q0 -86 63.5 -142t153.5 -56h559 q3 0 8.5 1t7.5 1q21 7 21 28v2v447q0 87 -65.5 150t-155.5 63h-375q-88 0 -152.5 -63t-64.5 -150v-281z" />
<glyph unicode=":" horiz-adv-x="344" d="M104 27v92h80q10 0 18.5 -8.5t8.5 -18.5v-92h-80q-11 0 -19 8t-8 19zM104 745v93h80q10 0 18.5 -8t8.5 -19v-92h-80q-11 0 -19 8t-8 18z" />
<glyph unicode=";" horiz-adv-x="372" d="M106 745v93h80q10 0 18.5 -8t8.5 -19v-92h-80q-11 0 -19 8t-8 18zM111 106h67q11 0 19 -8t8 -18v-168l-94 -59v253z" />
<glyph unicode="&#x3c;" horiz-adv-x="737" d="M88 686v66q0 9 6 19.5t15 14.5l507 279v-80q0 -25 -20 -35l-438 -233l438 -228q20 -10 20 -34v-82l-507 276q-21 14 -21 37z" />
<glyph unicode="=" horiz-adv-x="886" d="M86 434v64q0 9 7 15.5t16 6.5h649v-65q0 -9 -7 -15t-16 -6h-649zM86 774v66q0 9 7 15.5t16 6.5h649v-65q0 -9 -7 -16t-16 -7h-649z" />
<glyph unicode="&#x3e;" horiz-adv-x="759" d="M106 373v82q0 23 21 34l438 228l-438 233q-21 10 -21 35v80l508 -279q9 -4 15 -14.5t6 -19.5v-66q0 -23 -21 -37z" />
<glyph unicode="?" horiz-adv-x="1036" d="M49 1444v92h569q137 0 226.5 -83.5t89.5 -223.5v-264q0 -30 -20 -57t-50 -38l-407 -163q-10 -3 -17.5 -13.5t-7.5 -21.5v-393h-108v399q0 31 21 60t50 38l412 176q9 3 16.5 14t7.5 21v250q0 89 -61.5 148t-151.5 59h-569zM324 27v79h82q10 0 18 -8t8 -18v-80h-82 q-10 0 -18 8t-8 19z" />
<glyph unicode="@" horiz-adv-x="1402" d="M86 156v866q0 104 73 178t177 74h698q105 0 178.5 -73.5t73.5 -178.5v-799h-719q-88 0 -151.5 63t-63.5 152v49q0 90 63.5 152.5t151.5 62.5h310q8 0 8 9v73q0 50 -35.5 84.5t-85.5 34.5h-303q-15 0 -26 11t-11 26v53h340q90 0 153.5 -63.5t63.5 -151.5v-471h213v723 q0 63 -46.5 107.5t-109.5 44.5h-706q-63 0 -107.5 -44.5t-44.5 -107.5v-858q0 -62 44.5 -107t107.5 -45h729q15 0 26 -10.5t11 -25.5v-54h-762q-107 0 -178.5 64.5t-71.5 161.5zM449 426q0 -48 34 -83.5t84 -35.5h318v309h-318q-50 0 -84 -35t-34 -85v-70z" />
<glyph unicode="A" horiz-adv-x="1484" d="M27 0l520 1479q9 25 33.5 42t50.5 17h274l543 -1538h-80q-10 0 -20 7t-13 16l-147 426h-901l-148 -426q-3 -9 -13 -16t-20 -7h-79zM317 537h840l-317 911h-183q-23 0 -30 -21z" />
<glyph unicode="B" horiz-adv-x="1329" d="M129 63v1412q0 26 19 44.5t45 18.5h706q133 0 227.5 -94.5t94.5 -226.5v-166q0 -45 -22.5 -102t-68 -107.5t-100.5 -65.5q51 -7 97 -55.5t70 -105.5t24 -101v-192q0 -134 -94.5 -228t-227.5 -94h-706q-26 0 -45 18.5t-19 44.5zM236 113q0 -9 7 -16t17 -7h639q89 0 152 63 t63 152v217q0 89 -63 152t-152 63h-663v-624zM236 827h663q89 0 152 63t63 152v191q0 89 -63 152t-152 63h-639q-10 0 -17 -7t-7 -16v-598z" />
<glyph unicode="C" horiz-adv-x="1214" d="M123 322v895q0 132 94 226.5t227 94.5h670v-65q0 -11 -7 -18t-17 -7h-646q-89 0 -152 -63t-63 -152v-930q0 -89 63 -152t152 -63h646q10 0 17 -6.5t7 -15.5v-66h-670q-133 0 -227 94t-94 228z" />
<glyph unicode="D" horiz-adv-x="1347" d="M127 63v1412q0 26 18.5 44.5t44.5 18.5h715q132 0 227 -94.5t95 -226.5v-895q0 -133 -95 -227.5t-227 -94.5h-715q-26 0 -44.5 18.5t-18.5 44.5zM233 113q0 -11 7.5 -18t17.5 -7h647q88 0 151.5 63t63.5 152v930q0 89 -63.5 152t-151.5 63h-647q-10 0 -17.5 -7t-7.5 -16 v-1312z" />
<glyph unicode="E" horiz-adv-x="1196" d="M123 322v895q0 132 94 226.5t227 94.5h686v-65q0 -11 -7 -18t-17 -7h-662q-89 0 -152 -63t-63 -152v-447q18 29 58 29h786v-67q0 -10 -6.5 -17.5t-15.5 -7.5h-822v-420q0 -89 63 -152t152 -63h662q10 0 17 -7t7 -18v-63h-686q-133 0 -227 94t-94 228z" />
<glyph unicode="F" horiz-adv-x="1181" d="M125 0v1217q0 132 94 226.5t227 94.5h687v-68q0 -9 -7 -15.5t-16 -6.5h-664q-89 0 -152 -63t-63 -152v-438q20 20 52 20h804v-67q0 -10 -7.5 -17.5t-16.5 -7.5h-832v-700q0 -9 -6.5 -16t-15.5 -7h-84z" />
<glyph unicode="G" horiz-adv-x="1337" d="M125 311v914q0 133 93.5 227t227.5 94h699v-65q0 -9 -7 -16t-16 -7h-676q-89 0 -152 -63t-63 -152v-948q0 -89 63 -152t152 -63h451q89 0 152 63t63 152v442h-383q-9 0 -15.5 7t-6.5 16v67h491q9 0 15 -6.5t6 -15.5v-494q0 -132 -94.5 -226.5t-227.5 -94.5h-451 q-133 0 -227 94.5t-94 226.5z" />
<glyph unicode="H" horiz-adv-x="1341" d="M123 0v1538h84q9 0 15.5 -6.5t6.5 -15.5v-703h881v703q0 9 7 15.5t16 6.5h84v-1538h-84q-9 0 -16 7t-7 16v702h-881v-702q0 -9 -6.5 -16t-15.5 -7h-84z" />
<glyph unicode="I" horiz-adv-x="372" d="M133 23v1515h84q9 0 16 -6.5t7 -15.5v-1516h-84q-9 0 -16 7t-7 16z" />
<glyph unicode="J" horiz-adv-x="968" d="M49 23v65h475q89 0 151 62.5t62 150.5v1147h-262q-9 0 -15.5 6.5t-6.5 15.5v66h391v-1217q0 -132 -94 -225.5t-226 -93.5h-452q-9 0 -16 7t-7 16z" />
<glyph unicode="K" horiz-adv-x="1323" d="M125 0v1516q0 9 6.5 15.5t15.5 6.5h84v-760q11 35 60 35h559q89 0 152 63t63 152v488q0 9 6.5 15.5t15.5 6.5h84v-491q0 -89 -46 -165.5t-124 -119.5l-40 -21l329 -741h-94q-23 0 -33 20l-311 705h-584q-15 -2 -26 -12t-11 -25v-665q0 -9 -6.5 -16t-15.5 -7h-84z" />
<glyph unicode="L" horiz-adv-x="1146" d="M123 326v1190q0 9 6.5 15.5t15.5 6.5h84v-1231q0 -91 64 -155t153 -64h637q9 0 16 -6.5t7 -15.5v-66h-660q-134 0 -228.5 95.5t-94.5 230.5z" />
<glyph unicode="M" horiz-adv-x="1718" d="M123 0v1536h131q11 0 16 -10l588 -1034l586 1034q5 10 16 10h131v-1536h-84q-9 0 -15.5 7t-6.5 16v1376q-471 -842 -551 -981q-11 -19 -33 -19h-88q-9 0 -20 6t-15 13l-549 981v-1376q0 -9 -6.5 -16t-15.5 -7h-84z" />
<glyph unicode="N" d="M123 0v1516q0 9 6.5 15.5t15.5 6.5h136q38 0 81 -26t60 -60l725 -1321v1382q0 9 6.5 16t15.5 7h84v-1536h-118q-21 0 -33 20l-754 1366q-15 28 -43 45t-57 17h-19v-1425q0 -9 -6.5 -16t-15.5 -7h-84z" />
<glyph unicode="O" d="M121 311v914q0 132 94 226.5t227 94.5h492q132 0 226.5 -94.5t94.5 -226.5v-914q0 -132 -94.5 -226.5t-226.5 -94.5h-492q-133 0 -227 94.5t-94 226.5zM227 295q0 -89 63 -152t152 -63h492q89 0 152 63t63 152v946q0 89 -63 152t-152 63h-492q-89 0 -152 -63t-63 -152 v-946z" />
<glyph unicode="P" horiz-adv-x="1265" d="M123 0v1477q0 25 17 42t42 17h701q133 0 227 -94t94 -228v-213q0 -133 -94 -227t-227 -94h-596q-21 0 -37 9.5t-21 23.5v-690q0 -9 -6.5 -16t-15.5 -7h-84zM229 805q0 -15 11 -26t26 -11h617q89 0 152 63t63 152v250q0 89 -63 152t-152 63h-631q-9 0 -16 -7t-7 -16v-620z " />
<glyph unicode="Q" horiz-adv-x="1384" d="M125 311v914q0 132 94 226.5t227 94.5h492q132 0 227 -94.5t95 -226.5v-914q0 -106 -65.5 -192t-168.5 -117l-55 -14l61 -138h-74q-9 0 -18 6.5t-12 14.5l-54 119h-428q-133 0 -227 94.5t-94 226.5zM231 295q0 -89 63 -152t152 -63h388l-89 196h74q22 0 33 -18l80 -182 l37 6q78 10 131 71.5t53 141.5v946q0 89 -63 152t-152 63h-492q-89 0 -152 -63t-63 -152v-946z" />
<glyph unicode="R" horiz-adv-x="1271" d="M123 0v1477q0 25 17 42t42 17h703q132 0 226.5 -94.5t94.5 -227.5v-178q0 -73 -38.5 -145.5t-107.5 -121t-149 -48.5l320 -721h-94q-24 0 -31 20l-313 705h-506q-21 0 -37 9.5t-21 23.5v-735q0 -9 -6.5 -16t-15.5 -7h-84zM229 848q0 -14 11 -24.5t26 -10.5h619 q89 0 152 63t63 152v205q0 89 -63 152t-152 63h-633q-9 0 -16 -7t-7 -16v-577z" />
<glyph unicode="S" horiz-adv-x="1306" d="M86 0v66q0 9 7 15.5t16 6.5h780q89 0 152 63t63 152v248q0 21 -23 29l-921 305q-23 7 -39.5 30t-16.5 48v251q0 134 94 228t228 94h739v-66q0 -9 -6.5 -15.5t-15.5 -6.5h-717q-89 0 -152 -63t-63 -152v-246q0 -9 6.5 -18.5t13.5 -10.5l922 -305q23 -8 40 -30.5t17 -47.5 v-253q0 -133 -94.5 -227.5t-226.5 -94.5h-803z" />
<glyph unicode="T" horiz-adv-x="1161" d="M37 1448v68q0 9 6.5 14.5t15.5 5.5h1067v-66q0 -9 -6.5 -15.5t-15.5 -6.5h-471v-1425q0 -9 -7 -16t-16 -7h-84v1448h-489z" />
<glyph unicode="U" horiz-adv-x="1386" d="M125 311v1225h84q9 0 15.5 -7t6.5 -16v-1218q0 -89 63 -152t152 -63h492q89 0 152 63t63 152v1218q0 9 7 16t16 7h84v-1225q0 -132 -94.5 -226.5t-227.5 -94.5h-492q-133 0 -227 94.5t-94 226.5z" />
<glyph unicode="V" horiz-adv-x="1302" d="M39 1536h90q24 0 31 -20l499 -1428l500 1428q7 20 31 20h90l-535 -1516q-7 -20 -28 -20h-115q-22 0 -29 20z" />
<glyph unicode="W" horiz-adv-x="1945" d="M125 313v1223h84q9 0 15.5 -7t6.5 -16v-1218q0 -89 62.5 -148t155.5 -59h501q-30 13 -30 57v1391h86h2q6 0 12 -5q6 -6 6 -15v-1393q4 -28 27 -35h602q25 0 42 17t17 42v1369q0 9 7 14.5t16 5.5h86v-1389q0 -61 -44 -104t-106 -43h-1224q-137 0 -230.5 90.5t-93.5 222.5z " />
<glyph unicode="X" horiz-adv-x="1296" d="M47 1536h96q22 0 33 -18l369 -693q10 -22 35.5 -37.5t50.5 -15.5h82q25 0 50.5 15.5t35.5 37.5l360 693q3 7 12.5 12.5t18.5 5.5h96l-385 -745q-26 -47 -72 -68q51 -25 72 -72l342 -651h-94q-22 0 -33 18l-319 603q-9 22 -34 37.5t-50 15.5h-84q-25 0 -50.5 -15.5 t-35.5 -37.5l-324 -603q-3 -7 -12.5 -12.5t-18.5 -5.5h-96l350 655q27 48 70 68q-48 21 -70 68z" />
<glyph unicode="Y" horiz-adv-x="1333" d="M43 1536h92q21 0 31 -20l264 -687q10 -30 38.5 -49.5t61.5 -19.5h273q33 0 61.5 19.5t40.5 49.5l264 687q7 20 31 20h90l-305 -778q-13 -35 -51.5 -61.5t-75.5 -26.5h-2l-135 -8v-662h-107v662l-137 8h-2q-37 0 -74 26.5t-51 61.5z" />
<glyph unicode="Z" d="M78 23v63q0 28 16 47l1082 1278q4 8 4 14q0 9 -7 16t-16 7h-1012v68q0 9 7 15.5t16 6.5h1100q9 0 15.5 -6.5t6.5 -15.5v-89q0 -28 -16 -47l-1061 -1255q-6 -6 -6 -14q0 -9 7.5 -16t16.5 -7h1059v-65q0 -9 -6.5 -16t-15.5 -7h-1168q-9 0 -15.5 7t-6.5 16z" />
<glyph unicode="[" horiz-adv-x="450" d="M133 -170v1692q0 9 7 15.5t16 6.5h247v-71q0 -9 -6.5 -15t-15.5 -6h-154v-1550h154q9 0 15.5 -7t6.5 -16v-72h-247q-9 0 -16 7t-7 16z" />
<glyph unicode="\" horiz-adv-x="886" d="M0 1536h94q21 0 33 -20l766 -1516h-94q-21 0 -33 20z" />
<glyph unicode="]" horiz-adv-x="495" d="M74 -121q0 9 6.5 16t15.5 7h154v1550h-154q-9 0 -15.5 6t-6.5 15v71h248q9 0 15.5 -6.5t6.5 -15.5v-1692q0 -9 -6.5 -16t-15.5 -7h-248v72z" />
<glyph unicode="^" horiz-adv-x="780" d="M35 1022l278 496q11 18 35 18h82q22 0 33 -18l278 -496h-77q-23 0 -33 20l-242 433l-244 -433q-10 -20 -32 -20h-78z" />
<glyph unicode="_" horiz-adv-x="1095" d="M82 -33q0 12 8 20.5t19 8.5h880v-64q0 -10 -7.5 -18t-18.5 -8h-881v61z" />
<glyph unicode="`" horiz-adv-x="438" d="M106 1542h82q11 0 21.5 -6.5t13.5 -15.5l80 -209h-74q-24 0 -34 24z" />
<glyph unicode="a" horiz-adv-x="995" d="M84 256v106q0 107 74 183t180 76h422q19 0 22 22v133q0 68 -47 116t-114 48h-428q-8 0 -14.5 7t-6.5 16v63h449q105 0 179 -76t74 -182v-745q0 -9 -6.5 -16t-15.5 -7h-514q-106 0 -180 75t-74 181zM176 252q0 -68 47 -115t115 -47h444v453q-8 -8 -16 -8h-428 q-67 0 -114.5 -48t-47.5 -116v-119z" />
<glyph unicode="b" horiz-adv-x="1032" d="M123 23v1513h70q9 0 15.5 -7t6.5 -16v-528q1 17 18 28t39 11h400q109 0 181.5 -68.5t72.5 -181.5v-524q0 -113 -72.5 -181.5t-181.5 -68.5h-527q-9 0 -15.5 7t-6.5 16zM215 86h457q68 0 117 47.5t49 114.5v528q0 67 -49 115.5t-117 48.5h-422q-14 -2 -24 -12t-11 -25 v-190v-627z" />
<glyph unicode="c" horiz-adv-x="888" d="M106 256v510q0 106 74 181t180 75h420v-61q0 -9 -5.5 -16t-14.5 -7h-400q-67 0 -114 -48t-47 -116v-526q0 -68 47 -115t114 -47h400q9 0 14.5 -7t5.5 -16v-63h-420q-106 0 -180 75t-74 181z" />
<glyph unicode="d" horiz-adv-x="1034" d="M106 256v512q0 106 74 181t180 75h400q22 0 39 -11t18 -28v528q0 9 7 16t16 7h69v-1513q0 -9 -6.5 -16t-15.5 -7h-527q-106 0 -180 75t-74 181zM199 248q0 -68 47 -115t114 -47h457v817q-1 15 -11 25t-24 12h-422q-67 0 -114 -48t-47 -116v-528z" />
<glyph unicode="e" horiz-adv-x="1069" d="M123 248v530q0 113 70.5 179.5t177.5 66.5h323q107 0 177.5 -66.5t70.5 -179.5v-278q0 -10 -6.5 -17.5t-15.5 -7.5h-658q-27 0 -45 25h-2v-250q0 -68 47.5 -115t114.5 -47h526q9 0 16 -6.5t7 -15.5v-66h-549q-109 0 -181.5 67t-72.5 181zM215 584q0 -20 23 -23h612v215 q0 68 -45 116t-111 48h-323q-66 0 -111 -48t-45 -116v-192z" />
<glyph unicode="f" horiz-adv-x="606" d="M123 0v1284q0 106 74 181t180 75h203v-63q0 -9 -6.5 -15t-14.5 -6h-182q-67 0 -114.5 -48t-47.5 -116v-309q1 17 17.5 28t39.5 11h238v-61q0 -9 -7 -16t-16 -7h-272v-915q0 -9 -6 -16t-14 -7h-72z" />
<glyph unicode="g" horiz-adv-x="1011" d="M113 258v510q0 106 74.5 182t179.5 76h501q9 0 16 -7.5t7 -17.5v-1243q0 -107 -74 -182.5t-180 -75.5h-481v68q0 9 6 15.5t14 6.5h461q68 0 115 45.5t47 112.5v283q-13 -29 -56 -29l-376 -2q-105 0 -179.5 76t-74.5 182zM205 250q0 -68 47.5 -116t114.5 -48h395 q15 0 26 11t11 26v817h-432q-67 0 -114.5 -48t-47.5 -116v-526z" />
<glyph unicode="h" horiz-adv-x="1026" d="M125 0v1538h72q9 0 15.5 -6.5t6.5 -15.5v-531q1 17 18.5 28t41.5 11h374q106 0 181 -75t75 -181v-768h-65q-12 0 -19.5 8t-7.5 19v749q0 67 -48 114.5t-116 47.5h-397q-15 0 -26 -10.5t-11 -24.5v-876q0 -11 -7 -19t-19 -8h-68z" />
<glyph unicode="i" horiz-adv-x="372" d="M119 23v1001h69q9 0 16 -5.5t7 -14.5v-1004h-70q-9 0 -15.5 7t-6.5 16zM119 1382v97h71q9 0 15 -6.5t6 -14.5v-96h-72q-20 0 -20 20z" />
<glyph unicode="j" horiz-adv-x="376" d="M-66 -436q0 9 7 15.5t16 6.5h29q66 0 112.5 47.5t46.5 114.5v1276h72q21 0 21 -20v-1246q0 -107 -74 -182.5t-178 -75.5h-52v64zM137 1382v97h72q9 0 14.5 -6.5t5.5 -14.5v-96h-71q-21 0 -21 20z" />
<glyph unicode="k" horiz-adv-x="909" d="M123 0v1391h70q9 0 15.5 -7t6.5 -16v-809q11 35 57 35h265q70 0 130 48.5t60 113.5v248q0 9 7 15.5t16 6.5h69v-262q0 -65 -46.5 -126t-113.5 -99l-34 -19l254 -518h-82q-20 0 -31 18l-236 488h-280q-13 0 -23 -10.5t-12 -24.5v-450q0 -9 -6.5 -16t-15.5 -7h-70z" />
<glyph unicode="l" horiz-adv-x="348" d="M123 23v1429h70q9 0 15.5 -6.5t6.5 -15.5v-1428h-70q-9 0 -15.5 6t-6.5 15z" />
<glyph unicode="m" horiz-adv-x="1427" d="M127 0v934q0 37 26.5 64.5t63.5 27.5h836q104 0 179 -76t75 -182v-768h-72q-9 0 -16 7t-7 16v753q0 68 -46.5 116t-112.5 48h-324q33 -15 33 -57v-883h-70q-9 0 -15.5 7t-6.5 16v880q0 15 -11 26t-26 11h-391q-9 0 -16 -6.5t-7 -15.5v-895q0 -9 -6.5 -16t-15.5 -7h-70z " />
<glyph unicode="n" horiz-adv-x="1069" d="M123 0v934q0 37 26.5 64.5t63.5 27.5h473q104 0 179 -76t75 -182v-768h-72q-8 0 -14 7t-6 16v753q0 67 -48 115.5t-114 48.5h-448q-9 0 -16 -6.5t-7 -15.5v-895q0 -9 -6.5 -16t-15.5 -7h-70z" />
<glyph unicode="o" horiz-adv-x="1058" d="M119 242v538q0 106 74.5 182t179.5 76h309q104 0 178 -76t74 -182v-538q0 -106 -74 -181t-178 -75h-309q-106 0 -180 75t-74 181zM211 233q0 -67 47 -114t115 -47h309q66 0 113 47t47 114v555q0 68 -47 116t-113 48h-309q-67 0 -114.5 -48t-47.5 -116v-555z" />
<glyph unicode="p" horiz-adv-x="1054" d="M129 -500v1501q0 9 7 16t16 7h526q107 0 180.5 -71.5t73.5 -180.5v-522q0 -107 -73.5 -178.5t-180.5 -71.5h-399q-22 0 -38.5 11t-19.5 28v-516q0 -9 -6.5 -16t-15.5 -7h-70zM221 121q1 -13 11 -23t24 -12h422q67 0 114.5 48t47.5 116v526q0 68 -47.5 116t-114.5 48h-457 v-627v-192z" />
<glyph unicode="q" horiz-adv-x="1064" d="M125 258v510q0 106 74 181t180 75h526q9 0 16 -7t7 -16v-1501h-70q-9 0 -15.5 7t-6.5 16v516q-2 -15 -18.5 -27t-39.5 -12h-399q-106 0 -180 75.5t-74 182.5zM217 250q0 -68 47.5 -116t114.5 -48h422q13 2 23 11.5t12 23.5v819h-457q-67 0 -114.5 -48t-47.5 -116v-526z " />
<glyph unicode="r" horiz-adv-x="692" d="M123 0v1024h92v-68q2 3 5.5 7.5t18 16t33 20.5t51.5 16.5t72 7.5h234v-63q0 -9 -7 -15t-16 -6h-252q-40 0 -69 -15t-42 -37t-20 -43.5t-7 -36.5l-1 -15v-793h-92z" />
<glyph unicode="s" horiz-adv-x="1026" d="M94 0v63q0 9 7 16t16 7h528q69 0 117.5 37t48.5 100v133q0 9 -6.5 18.5t-13.5 10.5l-639 229q-23 7 -39.5 30t-16.5 48v103q0 103 72.5 166t181.5 63h471v-61q0 -9 -6.5 -16t-15.5 -7h-449q-69 0 -115.5 -40.5t-46.5 -106.5v-76q0 -9 6.5 -17.5t14.5 -11.5l635 -229 q23 -7 39 -30t16 -48v-156q0 -104 -73 -164.5t-181 -60.5h-551z" />
<glyph unicode="t" horiz-adv-x="643" d="M125 258v1282h70q9 0 15.5 -6.5t6.5 -15.5v-535q1 17 18 28t39 11h250v-61q0 -9 -6.5 -16t-15.5 -7h-285v-690q0 -66 47.5 -114t114.5 -48h182q8 0 14.5 -7t6.5 -16v-63h-203q-106 0 -180 75.5t-74 182.5z" />
<glyph unicode="u" horiz-adv-x="1064" d="M125 256v770h70q9 0 15.5 -6.5t6.5 -15.5v-756q0 -68 47.5 -115t114.5 -47h309q66 0 113 47.5t47 114.5v756q0 9 6.5 15.5t15.5 6.5h70v-770q0 -106 -74 -181t-178 -75h-309q-106 0 -180 75t-74 181z" />
<glyph unicode="v" horiz-adv-x="989" d="M20 1026h78q24 0 31 -20l360 -871l363 871q7 20 31 20h78l-433 -1006q-3 -8 -12 -14t-18 -6h-17q-9 0 -18 6t-12 14z" />
<glyph unicode="w" horiz-adv-x="1423" d="M121 258v768h69q9 0 16 -6.5t7 -15.5v-756q0 -66 47.5 -114t114.5 -48h321q-32 11 -32 57v883h71q9 0 15 -6.5t6 -15.5v-881q0 -15 11 -26t26 -11h393q9 0 14.5 7t5.5 16v895q0 9 7 15.5t16 6.5h71v-934q0 -38 -27 -65t-65 -27h-833q-106 0 -180 75.5t-74 182.5z" />
<glyph unicode="x" horiz-adv-x="983" d="M72 1024h80q19 0 30 -18l226 -431q12 -20 32 -20h115q9 0 18.5 6t12.5 14l217 431q11 18 31 18h79l-237 -463q-15 -30 -49 -47q31 -16 47 -47l239 -467h-79q-24 0 -31 20l-219 429q-7 20 -31 20h-113q-23 0 -30 -20l-228 -429q-7 -20 -30 -20h-78l248 465q17 30 47 45 q-31 16 -47 47z" />
<glyph unicode="y" horiz-adv-x="1048" d="M121 258v766h69q9 0 16 -5.5t7 -14.5v-748q0 -75 37.5 -122.5t122.5 -47.5h420q15 0 25.5 11t10.5 26v901h70q9 0 16 -5.5t7 -14.5v-1246q0 -107 -74 -182.5t-180 -75.5h-512v64q0 9 6 15.5t14 6.5h492q67 0 114 47t47 115v283q-13 -29 -55 -29l-401 -2q-123 0 -187.5 73 t-64.5 185z" />
<glyph unicode="z" horiz-adv-x="901" d="M61 23v38q0 43 23 72l633 768q4 8 4 12q0 8 -6 14.5t-13 6.5h-598v70q0 9 7 14.5t16 5.5h670q20 0 20 -20v-74q0 -47 -20 -72l-613 -735q-4 -8 -4 -14q0 -7 6 -13t13 -6h639v-67q0 -9 -6 -16t-15 -7h-733q-9 0 -16 7t-7 16z" />
<glyph unicode="{" horiz-adv-x="532" d="M133 670v94q40 5 66 34t26 70l2 422q0 121 67.5 207.5t197.5 108.5v-60q0 -21 -21 -28q-55 -21 -92 -64q-53 -59 -53 -143v-449q0 -66 -24.5 -102.5t-65.5 -42.5q-2 0 0 -2q40 -5 65 -42t25 -104v-489q-7 -170 145 -215q21 -7 21 -29v-74q-126 18 -194 105t-71 211 l-2 487q0 40 -26.5 70.5t-65.5 34.5z" />
<glyph unicode="|" horiz-adv-x="423" d="M164 -211v1761h78q9 0 15.5 -6.5t6.5 -15.5v-1761h-78q-9 0 -15.5 6.5t-6.5 15.5z" />
<glyph unicode="}" horiz-adv-x="559" d="M80 -164q0 22 20 29q153 46 146 215v489q0 67 25 104t65 42q2 2 0 2q-41 6 -65.5 42.5t-24.5 102.5v449q0 76 -53 135q-36 41 -93 63q-20 7 -20 29v68q130 -22 198 -108.5t68 -207.5v-422q0 -41 26 -70t66 -34v-94q-39 -4 -65.5 -34.5t-26.5 -70.5v-487 q-3 -124 -71.5 -211t-194.5 -105v74z" />
<glyph unicode="~" horiz-adv-x="894" d="M70 670l28 112q8 28 33.5 42t54.5 7l504 -133q9 -3 17.5 2.5t11.5 14.5l8 35q8 22 27 16l67 -18l-26 -99q-8 -28 -33.5 -43t-54.5 -8l-502 133q-9 3 -17.5 -1.5t-11.5 -12.5l-12 -49q-3 -8 -11.5 -13t-17.5 -2z" />
<glyph unicode="&#xa1;" horiz-adv-x="444" d="M168 913v95h80q10 0 18 -8t8 -19v-94h-79q-12 0 -19.5 7.5t-7.5 18.5zM170 -502v1245h76q11 0 18.5 -8t7.5 -20v-1243h-75q-12 0 -19.5 7.5t-7.5 18.5z" />
<glyph unicode="&#xa8;" horiz-adv-x="825" d="M143 1446v94h99q10 0 17 -7t7 -17v-95h-94q-12 0 -20.5 7.5t-8.5 17.5zM571 1446v94h99q10 0 17 -7t7 -17v-95h-94q-12 0 -20.5 7.5t-8.5 17.5z" />
<glyph unicode="&#xad;" horiz-adv-x="671" d="M53 707v59q0 10 8.5 18.5t18.5 8.5h489v-58q0 -12 -7.5 -20t-18.5 -8h-490z" />
<glyph unicode="&#xb0;" horiz-adv-x="604" d="M119 1294v121q0 56 31.5 88.5t87.5 32.5h122q56 0 89.5 -32t33.5 -87v-127q0 -55 -34 -85.5t-91 -30.5h-116q-57 0 -90 32t-33 88zM199 1292q0 -17 12 -29t29 -12h122q17 0 29 12t12 29v127q0 14 -12 26.5t-29 12.5h-122q-17 0 -29 -12.5t-12 -26.5v-127z" />
<glyph unicode="&#xb4;" horiz-adv-x="428" d="M115 1311l80 209q3 9 13 15.5t21 6.5h82l-88 -207q-10 -24 -35 -24h-73z" />
<glyph unicode="&#xb8;" horiz-adv-x="954" d="M238 -399q0 17 11.5 29t26.5 12h242q12 0 21.5 8t9.5 20v107q0 12 -9.5 20t-21.5 8h-209l47 179h70l-27 -105h133q37 0 66 -27t29 -63v-117q0 -48 -31 -80t-78 -32h-280v41z" />
<glyph unicode="&#xbf;" horiz-adv-x="1091" d="M111 86q0 30 19.5 56.5t49.5 37.5l408 164q10 3 17 13.5t7 21.5v393h109v-399q0 -31 -21.5 -60.5t-50.5 -38.5l-411 -176q-9 -3 -17 -14t-8 -21v-249q0 -89 61.5 -148t151.5 -59h569v-92h-569q-137 0 -226 83.5t-89 223.5v264zM612 971v80h82q10 0 18.5 -8.5t8.5 -18.5 v-80h-82q-11 0 -19 8t-8 19z" />
<glyph unicode="&#xc0;" horiz-adv-x="1484" d="M27 0l520 1479q9 25 33.5 42t50.5 17h274l543 -1538h-80q-10 0 -20 7t-13 16l-147 426h-901l-148 -426q-3 -9 -13 -16t-20 -7h-79zM317 537h840l-317 911h-183q-23 0 -30 -21zM594 1860h82q11 0 21.5 -7t13.5 -16l80 -209h-74q-24 0 -35 25z" />
<glyph unicode="&#xc1;" horiz-adv-x="1484" d="M27 0l520 1479q9 25 33.5 42t50.5 17h274l543 -1538h-80q-10 0 -20 7t-13 16l-147 426h-901l-148 -426q-3 -9 -13 -16t-20 -7h-79zM317 537h840l-317 911h-183q-23 0 -30 -21zM692 1636l80 209q3 9 13.5 16t21.5 7h82l-88 -207q-11 -25 -35 -25h-74z" />
<glyph unicode="&#xc2;" horiz-adv-x="1484" d="M27 0l520 1479q9 25 33.5 42t50.5 17h274l543 -1538h-80q-10 0 -20 7t-13 16l-147 426h-901l-148 -426q-3 -9 -13 -16t-20 -7h-79zM317 537h840l-317 911h-183q-23 0 -30 -21zM494 1626l174 172q19 19 39 19h55q18 0 37 -19l170 -172h-90q-19 0 -37 21l-111 110 l-110 -110q-17 -21 -37 -21h-90z" />
<glyph unicode="&#xc3;" horiz-adv-x="1484" d="M27 0l520 1479q9 25 33.5 42t50.5 17h274l543 -1538h-80q-10 0 -20 7t-13 16l-147 426h-901l-148 -426q-3 -9 -13 -16t-20 -7h-79zM317 537h840l-317 911h-183q-23 0 -30 -21zM508 1655v125q0 28 19.5 46.5t47.5 18.5h74q37 0 53 -16l115 -111q9 -6 25 -6h39q8 0 14 6 t6 15v77q0 12 8.5 20.5t20.5 8.5h43v-131q0 -28 -19 -48t-47 -20h-71q-35 0 -56 15l-129 114q-9 9 -24 9h-23q-7 0 -13.5 -6.5t-6.5 -14.5v-74q0 -12 -8.5 -20t-20.5 -8h-47z" />
<glyph unicode="&#xc4;" horiz-adv-x="1484" d="M27 0l520 1479q9 25 33.5 42t50.5 17h274l543 -1538h-80q-10 0 -20 7t-13 16l-147 426h-901l-148 -426q-3 -9 -13 -16t-20 -7h-79zM317 537h840l-317 911h-183q-23 0 -30 -21zM461 1702v94h98q11 0 18 -7t7 -17v-95h-95q-12 0 -20 7t-8 18zM889 1702v94h98q11 0 18 -7 t7 -17v-95h-94q-12 0 -20.5 7.5t-8.5 17.5z" />
<glyph unicode="&#xc5;" horiz-adv-x="1484" d="M27 0l520 1479q9 25 33.5 42t50.5 17h274l543 -1538h-80q-10 0 -20 7t-13 16l-147 426h-901l-148 -426q-3 -9 -13 -16t-20 -7h-79zM317 537h840l-317 911h-183q-23 0 -30 -21zM614 1726v74q0 41 30 71t73 30h74q41 0 70.5 -30t29.5 -71v-74q0 -41 -29.5 -70.5 t-70.5 -29.5h-74q-43 0 -73 29.5t-30 70.5zM680 1718q0 -12 8.5 -20t20.5 -8h88q12 0 20 8t8 20v90q0 11 -8 20t-20 9h-88q-12 0 -20.5 -9t-8.5 -20v-90z" />
<glyph unicode="&#xc6;" horiz-adv-x="1904" d="M0 0l670 1479q7 24 32 41.5t52 17.5h1028v-65q0 -9 -7.5 -16t-17.5 -7h-766v-637q18 29 60 29h702v-68q0 -9 -6.5 -15.5t-15.5 -6.5h-740v-449q0 -87 66.5 -151t156.5 -64h572q10 0 17 -6.5t7 -15.5v-66h-596q-134 0 -224.5 87.5t-90.5 219.5v142h-592l-194 -426 q-3 -9 -13 -16t-20 -7h-80zM338 537h561v913h-115q-9 0 -21 -7t-15 -16z" />
<glyph unicode="&#xc7;" horiz-adv-x="1249" d="M133 322v895q0 133 94 227t228 94h669v-65q0 -9 -7 -16t-17 -7h-645q-89 0 -152 -63t-63 -152v-930q0 -89 63 -152t152 -63h645q10 0 17 -7.5t7 -16.5v-66h-399l-31 -121h133q37 0 66 -27t29 -63v-117q0 -48 -31 -80t-78 -32h-281v41q0 17 12 29t27 12h242q12 0 21.5 8 t9.5 20v107q0 12 -9.5 20t-21.5 8h-209l51 195h-200q-133 0 -227.5 95t-94.5 227z" />
<glyph unicode="&#xc8;" horiz-adv-x="1196" d="M123 322v895q0 132 94 226.5t227 94.5h686v-65q0 -11 -7 -18t-17 -7h-662q-89 0 -152 -63t-63 -152v-447q18 29 58 29h786v-67q0 -10 -6.5 -17.5t-15.5 -7.5h-822v-420q0 -89 63 -152t152 -63h662q10 0 17 -7t7 -18v-63h-686q-133 0 -227 94t-94 228zM600 1892h82 q11 0 21.5 -6.5t13.5 -15.5l80 -209h-74q-24 0 -35 25z" />
<glyph unicode="&#xc9;" horiz-adv-x="1196" d="M123 322v895q0 132 94 226.5t227 94.5h686v-65q0 -11 -7 -18t-17 -7h-662q-89 0 -152 -63t-63 -152v-447q18 29 58 29h786v-67q0 -10 -6.5 -17.5t-15.5 -7.5h-822v-420q0 -89 63 -152t152 -63h662q10 0 17 -7t7 -18v-63h-686q-133 0 -227 94t-94 228zM608 1669l80 209 q3 9 13.5 16t21.5 7h82l-88 -207q-11 -25 -35 -25h-74z" />
<glyph unicode="&#xca;" horiz-adv-x="1196" d="M123 322v895q0 132 94 226.5t227 94.5h686v-65q0 -11 -7 -18t-17 -7h-662q-89 0 -152 -63t-63 -152v-447q18 29 58 29h786v-67q0 -10 -6.5 -17.5t-15.5 -7.5h-822v-420q0 -89 63 -152t152 -63h662q10 0 17 -7t7 -18v-63h-686q-133 0 -227 94t-94 228zM451 1665l174 172 q18 18 39 18h55q19 0 37 -18l170 -172h-90q-20 0 -37 21l-111 110l-110 -110q-18 -21 -37 -21h-90z" />
<glyph unicode="&#xcb;" horiz-adv-x="1196" d="M123 322v895q0 132 94 226.5t227 94.5h686v-65q0 -11 -7 -18t-17 -7h-662q-89 0 -152 -63t-63 -152v-447q18 29 58 29h786v-67q0 -10 -6.5 -17.5t-15.5 -7.5h-822v-420q0 -89 63 -152t152 -63h662q10 0 17 -7t7 -18v-63h-686q-133 0 -227 94t-94 228zM418 1743v94h98 q10 0 17.5 -7.5t7.5 -17.5v-94h-95q-12 0 -20 7t-8 18zM846 1743v94h98q10 0 17.5 -7.5t7.5 -17.5v-94h-95q-12 0 -20 7t-8 18z" />
<glyph unicode="&#xcc;" horiz-adv-x="372" d="M33 1896h82q11 0 21.5 -6.5t13.5 -15.5l79 -209h-73q-24 0 -35 25zM133 23q0 -9 7 -16t16 -7h84v1516q0 9 -7 15.5t-16 6.5h-84v-1515z" />
<glyph unicode="&#xcd;" horiz-adv-x="372" d="M131 1645l80 208q3 9 13.5 16t21.5 7h82l-88 -207q-10 -24 -35 -24h-74zM133 23v1515h84q9 0 16 -6.5t7 -15.5v-1516h-84q-9 0 -16 7t-7 16z" />
<glyph unicode="&#xce;" horiz-adv-x="372" d="M-51 1628l174 172q19 19 39 19h55q18 0 37 -19l170 -172h-90q-20 0 -37 21l-111 110l-110 -110q-18 -21 -37 -21h-90zM133 23q0 -9 7 -16t16 -7h84v1516q0 9 -7 15.5t-16 6.5h-84v-1515z" />
<glyph unicode="&#xcf;" horiz-adv-x="372" d="M-18 1686v94h98q10 0 17 -7t7 -18v-94h-94q-12 0 -20 7t-8 18zM133 23q0 -9 7 -16t16 -7h84v1516q0 9 -7 15.5t-16 6.5h-84v-1515zM254 1686v94h98q10 0 17.5 -7t7.5 -18v-94h-94q-12 0 -20.5 7.5t-8.5 17.5z" />
<glyph unicode="&#xd0;" horiz-adv-x="1390" d="M16 711v59q0 10 8 18.5t19 8.5h117v678q0 26 18.5 44.5t44.5 18.5h715q132 0 227 -94.5t95 -226.5v-895q0 -133 -95 -227.5t-227 -94.5h-715q-26 0 -44.5 18.5t-18.5 44.5v648h-144zM266 113q0 -11 7 -18t18 -7h647q88 0 151.5 63t63.5 152v930q0 89 -63.5 152t-151.5 63 h-647q-10 0 -17.5 -7t-7.5 -16v-628h266v-58q0 -12 -7.5 -20t-18.5 -8h-240v-598z" />
<glyph unicode="&#xd1;" d="M123 0v1516q0 9 6.5 15.5t15.5 6.5h136q38 0 81 -26t60 -60l725 -1321v1382q0 9 6.5 16t15.5 7h84v-1536h-118q-21 0 -33 20l-754 1366q-15 28 -43 45t-57 17h-19v-1425q0 -9 -6.5 -16t-15.5 -7h-84zM471 1681v125q0 28 20 47t48 19h73q37 0 54 -17l114 -110q9 -6 25 -6 h39q8 0 14 5.5t6 14.5v78q0 12 8.5 20.5t20.5 8.5h43v-131q0 -28 -19 -48t-47 -20h-71q-36 0 -56 14l-129 115q-8 8 -24 8h-23q-7 0 -13.5 -6t-6.5 -14v-74q0 -12 -8.5 -20.5t-20.5 -8.5h-47z" />
<glyph unicode="&#xd2;" d="M121 311q0 -132 94 -226.5t227 -94.5h492q132 0 226.5 94.5t94.5 226.5v914q0 132 -94.5 226.5t-226.5 94.5h-492q-133 0 -227 -94.5t-94 -226.5v-914zM227 295v946q0 89 63 152t152 63h492q89 0 152 -63t63 -152v-946q0 -89 -63 -152t-152 -63h-492q-89 0 -152 63 t-63 152zM557 1896h82q11 0 21.5 -6.5t13.5 -15.5l80 -209h-74q-24 0 -35 25z" />
<glyph unicode="&#xd3;" d="M121 311v914q0 132 94 226.5t227 94.5h492q132 0 226.5 -94.5t94.5 -226.5v-914q0 -132 -94.5 -226.5t-226.5 -94.5h-492q-133 0 -227 94.5t-94 226.5zM227 295q0 -89 63 -152t152 -63h492q89 0 152 63t63 152v946q0 89 -63 152t-152 63h-492q-89 0 -152 -63t-63 -152 v-946zM633 1653l80 209q3 9 13.5 15.5t21.5 6.5h81l-88 -207q-10 -24 -34 -24h-74z" />
<glyph unicode="&#xd4;" d="M121 311q0 -132 94 -226.5t227 -94.5h492q132 0 226.5 94.5t94.5 226.5v914q0 132 -94.5 226.5t-226.5 94.5h-492q-133 0 -227 -94.5t-94 -226.5v-914zM227 295v946q0 89 63 152t152 63h492q89 0 152 -63t63 -152v-946q0 -89 -63 -152t-152 -63h-492q-89 0 -152 63 t-63 152zM471 1651l174 172q18 18 39 18h55q19 0 37 -18l170 -172h-90q-20 0 -37 20l-110 111l-111 -111q-17 -20 -37 -20h-90z" />
<glyph unicode="&#xd5;" d="M121 311q0 -132 94 -226.5t227 -94.5h492q132 0 226.5 94.5t94.5 226.5v914q0 132 -94.5 226.5t-226.5 94.5h-492q-133 0 -227 -94.5t-94 -226.5v-914zM227 295v946q0 89 63 152t152 63h492q89 0 152 -63t63 -152v-946q0 -89 -63 -152t-152 -63h-492q-89 0 -152 63 t-63 152zM465 1683v125q0 28 19.5 47t47.5 19h74q37 0 53 -16l115 -111q9 -6 25 -6h39q8 0 14 5.5t6 14.5v78q0 12 8.5 20.5t20.5 8.5h43v-131q0 -28 -19 -48t-47 -20h-71q-36 0 -56 14l-129 115q-8 8 -24 8h-23q-7 0 -13.5 -6t-6.5 -14v-74q0 -12 -8.5 -20.5t-20.5 -8.5 h-47z" />
<glyph unicode="&#xd6;" d="M121 311q0 -132 94 -226.5t227 -94.5h492q132 0 226.5 94.5t94.5 226.5v914q0 132 -94.5 226.5t-226.5 94.5h-492q-133 0 -227 -94.5t-94 -226.5v-914zM227 295v946q0 89 63 152t152 63h492q89 0 152 -63t63 -152v-946q0 -89 -63 -152t-152 -63h-492q-89 0 -152 63 t-63 152zM428 1708v94h98q11 0 18 -7t7 -17v-95h-94q-12 0 -20.5 7.5t-8.5 17.5zM856 1708v94h98q11 0 18 -7t7 -17v-95h-94q-12 0 -20.5 7.5t-8.5 17.5z" />
<glyph unicode="&#xd8;" horiz-adv-x="1406" d="M10 264v76q0 13 8 28t19 23l104 68v766q0 133 94 227t228 94h489q134 0 229 -94t95 -227v-29l125 86v-82q0 -12 -8.5 -27.5t-18.5 -21.5l-98 -70v-768q0 -133 -95 -227t-229 -94h-489q-134 0 -228 94t-94 227v37zM248 295q0 -89 63 -152t152 -63h489q89 0 152 63t63 152 v725l-919 -596v-129zM248 528l919 598v117q0 89 -63 152t-152 63h-489q-89 0 -152 -63t-63 -152v-715z" />
<glyph unicode="&#xd9;" horiz-adv-x="1386" d="M125 311q0 -132 94 -226.5t227 -94.5h492q133 0 227.5 94.5t94.5 226.5v1225h-84q-9 0 -16 -7t-7 -16v-1218q0 -89 -63 -152t-152 -63h-492q-89 0 -152 63t-63 152v1218q0 9 -6.5 16t-15.5 7h-84v-1225zM569 1851h82q11 0 21.5 -6.5t13.5 -15.5l80 -209h-74q-24 0 -35 25 z" />
<glyph unicode="&#xda;" horiz-adv-x="1386" d="M125 311v1225h84q9 0 15.5 -7t6.5 -16v-1218q0 -89 63 -152t152 -63h492q89 0 152 63t63 152v1218q0 9 7 16t16 7h84v-1225q0 -132 -94.5 -226.5t-227.5 -94.5h-492q-133 0 -227 94.5t-94 226.5zM610 1628l80 209q3 9 13.5 16t21.5 7h82l-88 -207q-11 -25 -35 -25h-74z " />
<glyph unicode="&#xdb;" horiz-adv-x="1386" d="M125 311q0 -132 94 -226.5t227 -94.5h492q133 0 227.5 94.5t94.5 226.5v1225h-84q-9 0 -16 -7t-7 -16v-1218q0 -89 -63 -152t-152 -63h-492q-89 0 -152 63t-63 152v1218q0 9 -6.5 16t-15.5 7h-84v-1225zM457 1628l174 172q19 19 39 19h55q18 0 37 -19l170 -172h-90 q-20 0 -37 21l-111 110l-110 -110q-18 -21 -37 -21h-90z" />
<glyph unicode="&#xdc;" horiz-adv-x="1386" d="M125 311q0 -132 94 -226.5t227 -94.5h492q133 0 227.5 94.5t94.5 226.5v1225h-84q-9 0 -16 -7t-7 -16v-1218q0 -89 -63 -152t-152 -63h-492q-89 0 -152 63t-63 152v1218q0 9 -6.5 16t-15.5 7h-84v-1225zM436 1671v94h99q11 0 17.5 -6.5t6.5 -17.5v-94h-94q-12 0 -20.5 7 t-8.5 17zM864 1671v94h99q11 0 17.5 -6.5t6.5 -17.5v-94h-94q-12 0 -20.5 7t-8.5 17z" />
<glyph unicode="&#xdd;" horiz-adv-x="1333" d="M43 1536h92q21 0 31 -20l264 -687q10 -30 38.5 -49.5t61.5 -19.5h273q33 0 61.5 19.5t40.5 49.5l264 687q7 20 31 20h90l-305 -778q-13 -35 -51.5 -61.5t-75.5 -26.5h-2l-135 -8v-662h-107v662l-137 8h-2q-37 0 -74 26.5t-51 61.5zM598 1599l80 209q3 9 13.5 16t21.5 7 h82l-88 -207q-11 -25 -35 -25h-74z" />
<glyph unicode="&#xde;" horiz-adv-x="1284" d="M123 0v1536h84q9 0 15.5 -7t6.5 -16v-354q5 14 21 23.5t37 9.5h596q135 0 228 -86.5t93 -218.5v-238q0 -132 -93 -218.5t-228 -86.5h-596q-21 0 -37 9.5t-21 23.5v-354q0 -9 -6.5 -16t-15.5 -7h-84zM229 469q0 -15 11 -26t26 -11h617q89 0 152 63t63 152v242 q0 89 -63 152t-152 63h-617q-15 0 -26 -11t-11 -26v-598z" />
<glyph unicode="&#xdf;" horiz-adv-x="1073" d="M131 -2v1227q0 133 87 223t220 90h207q133 0 222 -90t89 -223v-125q0 -48 -14.5 -97t-55.5 -100t-102 -78q84 -17 131.5 -97t47.5 -159v-258q0 -134 -88.5 -222.5t-221.5 -88.5h-301v86h301q89 0 155 65t66 154v266q0 89 -66 154.5t-155 65.5h-303v86h303q90 0 154.5 63 t64.5 152v141q0 89 -68.5 154t-158.5 65h-207q-89 0 -153 -65t-64 -154v-1235h-90z" />
<glyph unicode="&#xe0;" horiz-adv-x="995" d="M84 256v106q0 107 74 183t180 76h422q19 0 22 22v133q0 68 -47 116t-114 48h-428q-8 0 -14.5 7t-6.5 16v63h449q105 0 179 -76t74 -182v-745q0 -9 -6.5 -16t-15.5 -7h-514q-106 0 -180 75t-74 181zM176 252q0 -68 47 -115t115 -47h444v453q-8 -8 -16 -8h-428 q-67 0 -114.5 -48t-47.5 -116v-119zM399 1462h78q10 0 20 -6t13 -14l76 -199h-70q-9 0 -18.5 7t-14.5 16z" />
<glyph unicode="&#xe1;" horiz-adv-x="995" d="M84 256v106q0 107 74 183t180 76h422q19 0 22 22v133q0 68 -47 116t-114 48h-428q-8 0 -14.5 7t-6.5 16v63h449q105 0 179 -76t74 -182v-745q0 -9 -6.5 -16t-15.5 -7h-514q-106 0 -180 75t-74 181zM176 252q0 -68 47 -115t115 -47h444v453q-8 -8 -16 -8h-428 q-67 0 -114.5 -48t-47.5 -116v-119zM446 1241l70 186q8 19 31 19h74l-78 -182q-11 -23 -33 -23h-64z" />
<glyph unicode="&#xe2;" horiz-adv-x="995" d="M84 256v106q0 107 74 183t180 76h422q19 0 22 22v133q0 68 -47 116t-114 48h-428q-8 0 -14.5 7t-6.5 16v63h449q105 0 179 -76t74 -182v-745q0 -9 -6.5 -16t-15.5 -7h-514q-106 0 -180 75t-74 181zM176 252q0 -68 47 -115t115 -47h444v453q-8 -8 -16 -8h-428 q-67 0 -114.5 -48t-47.5 -116v-119zM270 1268l174 172q18 18 39 18h56q18 0 36 -18l170 -172h-90q-20 0 -37 20l-110 111l-111 -111q-17 -20 -37 -20h-90z" />
<glyph unicode="&#xe3;" horiz-adv-x="995" d="M84 256v106q0 107 74 183t180 76h422q19 0 22 22v133q0 68 -47 116t-114 48h-428q-8 0 -14.5 7t-6.5 16v63h449q105 0 179 -76t74 -182v-745q0 -9 -6.5 -16t-15.5 -7h-514q-106 0 -180 75t-74 181zM176 252q0 -68 47 -115t115 -47h444v453q-8 -8 -16 -8h-428 q-67 0 -114.5 -48t-47.5 -116v-119zM279 1268v118q0 26 18.5 44t44.5 18h72q37 0 49 -14l110 -105q9 -6 23 -6h37q20 0 20 18v74q0 12 7.5 20.5t19.5 8.5h41v-125q0 -27 -18 -46.5t-44 -19.5h-69q-33 0 -51 15l-123 108q-8 8 -25 8h-20q-7 0 -14 -6t-7 -12v-72 q0 -11 -7 -18.5t-19 -7.5h-45z" />
<glyph unicode="&#xe4;" horiz-adv-x="995" d="M84 256v106q0 107 74 183t180 76h422q19 0 22 22v133q0 68 -47 116t-114 48h-428q-8 0 -14.5 7t-6.5 16v63h449q105 0 179 -76t74 -182v-745q0 -9 -6.5 -16t-15.5 -7h-514q-106 0 -180 75t-74 181zM176 252q0 -68 47 -115t115 -47h444v453q-8 -8 -16 -8h-428 q-67 0 -114.5 -48t-47.5 -116v-119zM274 1364v94h99q11 0 17.5 -7t6.5 -17v-95h-94q-12 0 -20.5 7.5t-8.5 17.5zM641 1364v94h98q11 0 18 -7t7 -17v-95h-94q-12 0 -20.5 7.5t-8.5 17.5z" />
<glyph unicode="&#xe5;" horiz-adv-x="995" d="M84 256v106q0 107 74 183t180 76h422q19 0 22 22v133q0 68 -47 116t-114 48h-428q-8 0 -14.5 7t-6.5 16v63h449q105 0 179 -76t74 -182v-745q0 -9 -6.5 -16t-15.5 -7h-514q-106 0 -180 75t-74 181zM176 252q0 -68 47 -115t115 -47h444v453q-8 -8 -16 -8h-428 q-67 0 -114.5 -48t-47.5 -116v-119zM375 1305v73q0 42 29.5 71.5t72.5 29.5h74q41 0 70.5 -30t29.5 -71v-73q0 -41 -29.5 -71t-70.5 -30h-74q-43 0 -72.5 30t-29.5 71zM440 1296q0 -12 8.5 -20t20.5 -8h88q12 0 20.5 8t8.5 20v90q0 11 -8.5 20t-20.5 9h-88q-12 0 -20.5 -9 t-8.5 -20v-90z" />
<glyph unicode="&#xe6;" horiz-adv-x="1697" d="M88 256v47q0 107 75 182.5t181 75.5h451v215q0 67 -48 115.5t-114 48.5h-434q-9 0 -16 7t-7 16v63h457q63 0 118 -30t91 -81q76 111 205 111h249q106 0 182 -76t76 -182v-268q0 -11 -7 -18t-17 -7h-647v-227q0 -66 48.5 -114t115.5 -48h493q9 0 15 -7t6 -16v-63h-508 q-65 0 -121 30.5t-92 82.5q-36 -52 -91 -82.5t-118 -30.5h-287q-106 0 -181 75t-75 181zM182 252q0 -67 48 -114.5t114 -47.5h289q66 0 114 47.5t48 114.5v223h-451q-66 0 -114 -48.5t-48 -115.5v-59zM883 561h577v215q0 68 -48 116t-116 48h-249q-67 0 -115.5 -48 t-48.5 -116v-215z" />
<glyph unicode="&#xe7;" horiz-adv-x="915" d="M123 246v520q0 106 75 181t181 75h428v-64q0 -9 -7 -15.5t-16 -6.5h-405q-66 0 -114 -47.5t-48 -114.5v-526q0 -67 47.5 -113.5t114.5 -46.5h405q9 0 16 -6.5t7 -15.5v-66h-260l-29 -117h113q37 0 62.5 -26.5t25.5 -63.5v-90q0 -37 -25.5 -62.5t-62.5 -25.5h-277v33 q0 16 11 27.5t28 11.5h223q12 0 21.5 8t9.5 20v66q0 12 -9.5 20.5t-21.5 8.5h-188l45 190h-94q-107 0 -181.5 70t-74.5 176z" />
<glyph unicode="&#xe8;" horiz-adv-x="1069" d="M123 248v530q0 113 70.5 179.5t177.5 66.5h323q107 0 177.5 -66.5t70.5 -179.5v-278q0 -10 -6.5 -17.5t-15.5 -7.5h-658q-27 0 -45 25h-2v-250q0 -68 47.5 -115t114.5 -47h526q9 0 16 -6.5t7 -15.5v-66h-549q-109 0 -181.5 67t-72.5 181zM215 584q0 -20 23 -23h612v215 q0 68 -45 116t-111 48h-323q-66 0 -111 -48t-45 -116v-192zM436 1481h82q11 0 21.5 -7t13.5 -16l80 -209h-74q-24 0 -35 25z" />
<glyph unicode="&#xe9;" horiz-adv-x="1069" d="M123 248v530q0 113 70.5 179.5t177.5 66.5h323q107 0 177.5 -66.5t70.5 -179.5v-278q0 -10 -6.5 -17.5t-15.5 -7.5h-658q-27 0 -45 25h-2v-250q0 -68 47.5 -115t114.5 -47h526q9 0 16 -6.5t7 -15.5v-66h-549q-109 0 -181.5 67t-72.5 181zM215 584q0 -20 23 -23h612v215 q0 68 -45 116t-111 48h-323q-66 0 -111 -48t-45 -116v-192zM479 1233l80 209q3 9 13.5 15.5t21.5 6.5h82l-88 -207q-10 -24 -35 -24h-74z" />
<glyph unicode="&#xea;" horiz-adv-x="1069" d="M123 248v530q0 113 70.5 179.5t177.5 66.5h323q107 0 177.5 -66.5t70.5 -179.5v-278q0 -10 -6.5 -17.5t-15.5 -7.5h-658q-27 0 -45 25h-2v-250q0 -68 47.5 -115t114.5 -47h526q9 0 16 -6.5t7 -15.5v-66h-549q-109 0 -181.5 67t-72.5 181zM215 584q0 -20 23 -23h612v215 q0 68 -45 116t-111 48h-323q-66 0 -111 -48t-45 -116v-192zM305 1262l174 172q18 18 39 18h55q19 0 37 -18l170 -172h-90q-20 0 -37 20l-110 111l-111 -111q-17 -20 -37 -20h-90z" />
<glyph unicode="&#xeb;" horiz-adv-x="1069" d="M123 248v530q0 113 70.5 179.5t177.5 66.5h323q107 0 177.5 -66.5t70.5 -179.5v-278q0 -10 -6.5 -17.5t-15.5 -7.5h-658q-27 0 -45 25h-2v-250q0 -68 47.5 -115t114.5 -47h526q9 0 16 -6.5t7 -15.5v-66h-549q-109 0 -181.5 67t-72.5 181zM215 584q0 -20 23 -23h612v215 q0 68 -45 116t-111 48h-323q-66 0 -111 -48t-45 -116v-192zM301 1348v94h98q11 0 18 -7t7 -18v-94h-94q-12 0 -20.5 7.5t-8.5 17.5zM676 1348v94h98q10 0 17.5 -7t7.5 -18v-94h-94q-12 0 -20.5 7.5t-8.5 17.5z" />
<glyph unicode="&#xec;" horiz-adv-x="421" d="M45 1473h72q10 0 20 -7t13 -16l71 -203h-67q-20 0 -31 25zM119 23q0 -9 6.5 -16t15.5 -7h70v1004q0 9 -7 14.5t-16 5.5h-69v-1001z" />
<glyph unicode="&#xed;" horiz-adv-x="421" d="M119 23v1001h69q9 0 16 -5.5t7 -14.5v-1004h-70q-9 0 -15.5 7t-6.5 16zM131 1251l70 193q3 9 12 15.5t18 6.5h70l-76 -192q-7 -23 -28 -23h-66z" />
<glyph unicode="&#xee;" horiz-adv-x="421" d="M-18 1249l141 201q15 23 31 23h45q15 0 30 -23l140 -201h-74q-17 0 -31 25l-90 129l-90 -129q-14 -25 -29 -25h-73zM119 23q0 -9 6.5 -16t15.5 -7h70v1004q0 9 -7 14.5t-16 5.5h-69v-1001z" />
<glyph unicode="&#xef;" horiz-adv-x="399" d="M20 1407v94h82q9 0 15 -7t6 -17v-95h-78q-11 0 -18 7t-7 18zM137 23q0 -9 7 -16t16 -7h69v1004q0 9 -6.5 14.5t-15.5 5.5h-70v-1001zM270 1407v94h82q9 0 15 -7t6 -17v-95h-78q-11 0 -18 7t-7 18z" />
<glyph unicode="&#xf0;" horiz-adv-x="1058" d="M119 242v512q0 106 74.5 182t179.5 76h309q5 0 15.5 -1t15.5 -1l-172 243l-148 -84l-37 64l142 82l-156 221h100l127 -180l144 84l37 -66l-138 -78q260 -368 298 -435q1 -2 1 -3q23 -54 23 -104v-512q0 -106 -74 -181t-178 -75h-309q-106 0 -180 75t-74 181zM211 233 q0 -67 47 -114t115 -47h309q66 0 113 47t47 114v529q0 68 -47 116t-113 48h-309q-67 0 -114.5 -48t-47.5 -116v-529z" />
<glyph unicode="&#xf1;" horiz-adv-x="1069" d="M123 0h70q9 0 15.5 7t6.5 16v895q0 9 7 15.5t16 6.5h448q66 0 114 -48.5t48 -115.5v-753q0 -9 6 -16t14 -7h72v768q0 106 -75 182t-179 76h-473q-37 0 -63.5 -27.5t-26.5 -64.5v-934zM285 1257v125q0 28 19.5 47t47.5 19h74q37 0 53 -16l115 -111q9 -6 24 -6h39 q8 0 14.5 5.5t6.5 14.5v78q0 12 8.5 20.5t20.5 8.5h43v-131q0 -28 -19 -48t-47 -20h-72q-35 0 -55 14l-129 115q-8 8 -25 8h-22q-8 0 -14.5 -6.5t-6.5 -13.5v-74q0 -12 -8 -20.5t-20 -8.5h-47z" />
<glyph unicode="&#xf2;" horiz-adv-x="1058" d="M119 242q0 -106 74 -181t180 -75h309q104 0 178 75t74 181v538q0 106 -74 182t-178 76h-309q-105 0 -179.5 -76t-74.5 -182v-538zM211 233v555q0 68 47.5 116t114.5 48h309q66 0 113 -48t47 -116v-555q0 -67 -47 -114t-113 -47h-309q-68 0 -115 47t-47 114zM428 1481h76 q10 0 20 -7t13 -16l75 -207h-69q-22 0 -33 25z" />
<glyph unicode="&#xf3;" horiz-adv-x="1058" d="M119 242v538q0 106 74.5 182t179.5 76h309q104 0 178 -76t74 -182v-538q0 -106 -74 -181t-178 -75h-309q-106 0 -180 75t-74 181zM211 233q0 -67 47 -114t115 -47h309q66 0 113 47t47 114v555q0 68 -47 116t-113 48h-309q-67 0 -114.5 -48t-47.5 -116v-555zM473 1247 l76 203q3 9 13 16t20 7h75l-82 -201q-11 -25 -32 -25h-70z" />
<glyph unicode="&#xf4;" horiz-adv-x="1058" d="M119 242q0 -106 74 -181t180 -75h309q104 0 178 75t74 181v538q0 106 -74 182t-178 76h-309q-105 0 -179.5 -76t-74.5 -182v-538zM211 233v555q0 68 47.5 116t114.5 48h309q66 0 113 -48t47 -116v-555q0 -67 -47 -114t-113 -47h-309q-68 0 -115 47t-47 114zM291 1274 l174 172q18 18 39 18h55q19 0 37 -18l170 -172h-90q-20 0 -37 20l-111 111l-110 -111q-17 -20 -37 -20h-90z" />
<glyph unicode="&#xf5;" horiz-adv-x="1058" d="M119 242q0 -106 74 -181t180 -75h309q104 0 178 75t74 181v538q0 106 -74 182t-178 76h-309q-105 0 -179.5 -76t-74.5 -182v-538zM211 233v555q0 68 47.5 116t114.5 48h309q66 0 113 -48t47 -116v-555q0 -67 -47 -114t-113 -47h-309q-68 0 -115 47t-47 114zM301 1298v119 q0 27 19.5 45.5t46.5 18.5h69q34 0 51 -17l111 -106q12 -4 23 -4h36q21 0 21 18v76q0 10 8 18.5t19 8.5h40v-125q0 -28 -17.5 -47t-43.5 -19h-70q-33 0 -53 14l-123 109q-8 8 -22 8h-23q-7 0 -12.5 -6t-5.5 -12v-72q0 -12 -8.5 -19.5t-20.5 -7.5h-45z" />
<glyph unicode="&#xf6;" horiz-adv-x="1058" d="M119 242q0 -106 74 -181t180 -75h309q104 0 178 75t74 181v538q0 106 -74 182t-178 76h-309q-105 0 -179.5 -76t-74.5 -182v-538zM211 233v555q0 68 47.5 116t114.5 48h309q66 0 113 -48t47 -116v-555q0 -67 -47 -114t-113 -47h-309q-68 0 -115 47t-47 114zM317 1358v90 h95q9 0 15.5 -6.5t6.5 -16.5v-90h-90q-11 0 -19 7t-8 16zM664 1358v90h94q9 0 15.5 -6.5t6.5 -16.5v-90h-90q-10 0 -18 7t-8 16z" />
<glyph unicode="&#xf8;" horiz-adv-x="1083" d="M27 125v76q0 12 6.5 24.5t15.5 16.5l78 53v485q0 106 75.5 182t182.5 76h313q93 0 164 -60t88 -151l107 70v-76q0 -10 -7 -22.5t-16 -18.5l-80 -51v-487q0 -106 -75 -181t-181 -75h-313q-94 0 -165.5 59.5t-88.5 149.5zM221 233q0 -67 48 -114t116 -47h313q68 0 115 47 t47 114v435l-639 -414v-21zM221 356l639 414v18q0 68 -47.5 116t-114.5 48h-313q-67 0 -115.5 -48t-48.5 -116v-432z" />
<glyph unicode="&#xf9;" horiz-adv-x="1064" d="M125 256q0 -106 74 -181t180 -75h309q104 0 178 75t74 181v770h-70q-9 0 -15.5 -6.5t-6.5 -15.5v-756q0 -67 -47 -114.5t-113 -47.5h-309q-67 0 -114.5 47t-47.5 115v756q0 9 -6.5 15.5t-15.5 6.5h-70v-770zM420 1481h82q11 0 21.5 -7t13.5 -16l79 -209h-73q-24 0 -35 25 z" />
<glyph unicode="&#xfa;" horiz-adv-x="1064" d="M125 256v770h70q9 0 15.5 -6.5t6.5 -15.5v-756q0 -68 47.5 -115t114.5 -47h309q66 0 113 47.5t47 114.5v756q0 9 6.5 15.5t15.5 6.5h70v-770q0 -106 -74 -181t-178 -75h-309q-106 0 -180 75t-74 181zM477 1251l74 209q3 9 13 16t20 7h73l-79 -207q-11 -25 -33 -25h-68z " />
<glyph unicode="&#xfb;" horiz-adv-x="1064" d="M125 256q0 -106 74 -181t180 -75h309q104 0 178 75t74 181v770h-70q-9 0 -15.5 -6.5t-6.5 -15.5v-756q0 -67 -47 -114.5t-113 -47.5h-309q-67 0 -114.5 47t-47.5 115v756q0 9 -6.5 15.5t-15.5 6.5h-70v-770zM307 1286l174 172q19 19 39 19h55q18 0 37 -19l170 -172h-90 q-20 0 -37 21l-110 110l-111 -110q-17 -21 -37 -21h-90z" />
<glyph unicode="&#xfc;" horiz-adv-x="1064" d="M125 256q0 -106 74 -181t180 -75h309q104 0 178 75t74 181v770h-70q-9 0 -15.5 -6.5t-6.5 -15.5v-756q0 -67 -47 -114.5t-113 -47.5h-309q-67 0 -114.5 47t-47.5 115v756q0 9 -6.5 15.5t-15.5 6.5h-70v-770zM291 1384v95h98q11 0 18 -7.5t7 -17.5v-94h-95q-12 0 -20 7 t-8 17zM676 1384v95h98q10 0 17.5 -7.5t7.5 -17.5v-94h-94q-12 0 -20.5 7t-8.5 17z" />
<glyph unicode="&#xfd;" horiz-adv-x="1048" d="M121 258v766h69q9 0 16 -5.5t7 -14.5v-748q0 -75 37.5 -122.5t122.5 -47.5h420q15 0 25.5 11t10.5 26v901h70q9 0 16 -5.5t7 -14.5v-1246q0 -107 -74 -182.5t-180 -75.5h-512v64q0 9 6 15.5t14 6.5h492q67 0 114 47t47 115v283q-13 -29 -55 -29l-401 -2q-123 0 -187.5 73 t-64.5 185zM465 1257l80 209q3 9 13.5 16t21.5 7h82l-89 -207q-11 -25 -34 -25h-74z" />
<glyph unicode="&#xfe;" horiz-adv-x="1054" d="M129 -500v2026h70q9 0 15.5 -7t6.5 -16v-514q3 15 20 26t38 11h399q107 0 180.5 -71.5t73.5 -178.5v-526q0 -107 -73.5 -178.5t-180.5 -71.5h-399q-22 0 -38.5 10t-19.5 27v-514q0 -9 -6.5 -16t-15.5 -7h-70zM221 121q1 -13 11 -23t24 -12h422q67 0 114.5 48t47.5 116 v526q0 68 -47.5 116t-114.5 48h-422q-14 -2 -24 -12t-11 -23v-784z" />
<glyph unicode="&#xff;" horiz-adv-x="1048" d="M121 258v766h69q9 0 16 -5.5t7 -14.5v-748q0 -75 37.5 -122.5t122.5 -47.5h420q15 0 25.5 11t10.5 26v901h70q9 0 16 -5.5t7 -14.5v-1246q0 -107 -74 -182.5t-180 -75.5h-512v64q0 9 6 15.5t14 6.5h492q67 0 114 47t47 115v283q-13 -29 -55 -29l-401 -2q-123 0 -187.5 73 t-64.5 185zM258 1368v94h98q11 0 18 -7t7 -17v-95h-94q-12 0 -20.5 7.5t-8.5 17.5zM686 1368v94h98q11 0 18 -7t7 -17v-95h-94q-12 0 -20.5 7.5t-8.5 17.5z" />
<glyph unicode="&#x152;" horiz-adv-x="2174" d="M123 307v926q0 140 92 226.5t229 86.5h443q84 0 153 -40t111 -109q97 141 258 141h659v-65q0 -9 -7 -17t-17 -8h-635q-89 0 -152 -62.5t-63 -150.5v-449q18 29 59 29h758v-67q0 -9 -6.5 -17t-15.5 -8h-795v-420q0 -88 63 -151.5t152 -63.5h635q10 0 17 -6.5t7 -15.5v-66 h-659q-161 0 -258 141q-42 -69 -111 -109t-153 -40h-443q-136 0 -228.5 87.5t-92.5 227.5zM225 295q0 -89 64.5 -152t154.5 -63h443q89 0 152 63t63 152v948q0 89 -63 152t-152 63h-443q-90 0 -154.5 -63t-64.5 -152v-948z" />
<glyph unicode="&#x153;" horiz-adv-x="1757" d="M135 248v526q0 104 74 178t178 74h297q63 0 116.5 -30t88.5 -81q79 111 203 111h282q107 0 182.5 -76t75.5 -182v-268q0 -10 -6.5 -17.5t-15.5 -7.5h-682v-225q0 -68 48 -116t116 -48h495q9 0 16 -7t7 -16v-63h-518q-127 0 -205 109q-34 -52 -87 -81.5t-116 -29.5h-297 q-104 0 -178 73.5t-74 176.5zM227 240q0 -65 47 -111.5t113 -46.5h297q66 0 113 46.5t47 111.5v542q0 66 -47 113t-113 47h-297q-66 0 -113 -47t-47 -113v-542zM928 561h610v215q0 68 -48 116t-116 48h-282q-68 0 -116 -48t-48 -116v-215z" />
<glyph unicode="&#x178;" horiz-adv-x="1333" d="M43 1536l307 -778q14 -35 51 -61.5t74 -26.5h2l137 -8v-662h107v662l135 8h2q37 0 75.5 26.5t51.5 61.5l305 778h-90q-24 0 -31 -20l-264 -687q-12 -30 -40.5 -49.5t-61.5 -19.5h-273q-33 0 -61.5 19.5t-38.5 49.5l-264 687q-10 20 -31 20h-92zM391 1628v94h98 q11 0 18 -7t7 -17v-94h-94q-12 0 -20.5 7t-8.5 17zM819 1628v94h99q10 0 17 -7t7 -17v-94h-94q-12 0 -20.5 7t-8.5 17z" />
<glyph unicode="&#x2c6;" horiz-adv-x="540" d="M25 1346l174 172q18 18 39 18h55q19 0 37 -18l170 -172h-90q-20 0 -37 20l-111 111l-110 -111q-17 -20 -37 -20h-90z" />
<glyph unicode="&#x2dc;" horiz-adv-x="712" d="M125 1348v125q0 27 20 46t48 19h73q37 0 53 -16l115 -111q9 -6 25 -6h39q8 0 14 5.5t6 14.5v78q0 12 8.5 20.5t20.5 8.5h43v-131q0 -28 -19 -48t-47 -20h-71q-35 0 -56 15l-129 114q-8 8 -24 8h-23q-7 0 -13.5 -6t-6.5 -14v-74q0 -12 -8.5 -20t-20.5 -8h-47z" />
<glyph unicode="&#x2000;" horiz-adv-x="950" />
<glyph unicode="&#x2001;" horiz-adv-x="1901" />
<glyph unicode="&#x2002;" horiz-adv-x="950" />
<glyph unicode="&#x2003;" horiz-adv-x="1901" />
<glyph unicode="&#x2004;" horiz-adv-x="633" />
<glyph unicode="&#x2005;" horiz-adv-x="475" />
<glyph unicode="&#x2006;" horiz-adv-x="316" />
<glyph unicode="&#x2007;" horiz-adv-x="316" />
<glyph unicode="&#x2008;" horiz-adv-x="237" />
<glyph unicode="&#x2009;" horiz-adv-x="380" />
<glyph unicode="&#x200a;" horiz-adv-x="105" />
<glyph unicode="&#x2010;" horiz-adv-x="671" d="M53 707v59q0 10 8.5 18.5t18.5 8.5h489v-58q0 -12 -7.5 -20t-18.5 -8h-490z" />
<glyph unicode="&#x2011;" horiz-adv-x="671" d="M53 707v59q0 10 8.5 18.5t18.5 8.5h489v-58q0 -12 -7.5 -20t-18.5 -8h-490z" />
<glyph unicode="&#x2012;" horiz-adv-x="671" d="M53 707v59q0 10 8.5 18.5t18.5 8.5h489v-58q0 -12 -7.5 -20t-18.5 -8h-490z" />
<glyph unicode="&#x2013;" horiz-adv-x="888" d="M123 723v63q0 10 8.5 18.5t18.5 8.5h544v-61q0 -12 -7.5 -20.5t-18.5 -8.5h-545z" />
<glyph unicode="&#x2014;" horiz-adv-x="954" d="M123 723v63q0 10 8.5 18.5t18.5 8.5h681v-61q0 -12 -7.5 -20.5t-18.5 -8.5h-682z" />
<glyph unicode="&#x2018;" horiz-adv-x="366" d="M123 1305v231h80q10 0 18 -8t8 -19v-131z" />
<glyph unicode="&#x2019;" horiz-adv-x="366" d="M123 1307v153l106 74v-254h-79q-10 0 -18.5 8t-8.5 19z" />
<glyph unicode="&#x201a;" horiz-adv-x="311" d="M96 106h68q10 0 18 -8t8 -18v-189l-94 -57v272z" />
<glyph unicode="&#x201c;" horiz-adv-x="479" d="M100 1266v268h70q10 0 18.5 -8t8.5 -19v-182zM289 1266v268h69q10 0 18.5 -8t8.5 -19v-182z" />
<glyph unicode="&#x201d;" horiz-adv-x="477" d="M98 1286v182l97 60v-268h-70q-11 0 -19 8t-8 18zM287 1286v182l96 60v-268h-70q-11 0 -18.5 8t-7.5 18z" />
<glyph unicode="&#x201e;" horiz-adv-x="518" d="M96 106h68q10 0 18 -8t8 -18v-189l-94 -57v272zM332 106h67q11 0 19 -8t8 -18v-189l-94 -57v272z" />
<glyph unicode="&#x2022;" horiz-adv-x="385" d="M92 659v138h137q19 0 33 -14t14 -33v-138h-137q-19 0 -33 14t-14 33z" />
<glyph unicode="&#x2026;" horiz-adv-x="1234" d="M123 27v96h80q10 0 18 -8t8 -19v-96h-79q-10 0 -18.5 8t-8.5 19zM535 27v96h79q10 0 18.5 -8.5t8.5 -18.5v-96h-80q-10 0 -18 8t-8 19zM946 27v96h80q10 0 18.5 -8.5t8.5 -18.5v-96h-80q-11 0 -19 8t-8 19z" />
<glyph unicode="&#x202f;" horiz-adv-x="380" />
<glyph unicode="&#x205f;" horiz-adv-x="475" />
<glyph unicode="&#x20ac;" horiz-adv-x="1126" d="M47 625v65q0 9 7 16t16 7h118v149h-141v66q0 9 7 15.5t16 6.5h118v283q0 132 88 217.5t222 85.5h520v-66q0 -10 -7 -17t-16 -7h-497q-89 0 -152 -63t-63 -152v-281h645v-65q0 -9 -7.5 -16t-17.5 -7h-620v-149h645v-64q0 -10 -7 -17t-18 -7h-620v-322q0 -89 63 -152 t152 -63h497q9 0 16 -7.5t7 -17.5v-63h-520q-134 0 -222 86t-88 219v320h-141z" />
<glyph unicode="&#x2122;" horiz-adv-x="1099" d="M98 1503v21q0 8 6 8h324v-21q0 -8 -6 -8h-141v-444q0 -1 -3.5 -4.5t-5.5 -3.5h-26v452h-148zM485 1051v481h39q6 0 6 -4l179 -322l178 322l4 4h39v-481h-23q-8 0 -8 8v432q-143 -266 -166 -309q-3 -6 -10 -6h-27q-10 0 -10 6l-170 309v-432q0 -8 -4 -8h-27z" />
<glyph unicode="&#x25fc;" horiz-adv-x="1024" d="M0 0v1024h1024v-1024h-1024z" />
</font>
</defs>
</svg>
