<?xml version="1.0" standalone="no"?>
<!DOCTYPE svg PUBLIC "-//W3C//DTD SVG 1.1//EN" "http://www.w3.org/Graphics/SVG/1.1/DTD/svg11.dtd" >
<svg xmlns="http://www.w3.org/2000/svg">
<metadata></metadata>
<defs>
<font id="primeregular" horiz-adv-x="1048" >
<font-face units-per-em="2048" ascent="1536" descent="-512" />
<missing-glyph horiz-adv-x="776" />
<glyph horiz-adv-x="0" />
<glyph horiz-adv-x="682" />
<glyph unicode=" "  horiz-adv-x="776" />
<glyph unicode="&#x09;" horiz-adv-x="776" />
<glyph unicode="&#xa0;" horiz-adv-x="776" />
<glyph unicode="!" horiz-adv-x="509" d="M154 29q0 -12 8 -20.5t20 -8.5h164v164q0 11 -8.5 20t-20.5 9h-163v-164zM154 373v1163h165q11 0 19 -8t8 -19v-1163h-166q-11 0 -18.5 7.5t-7.5 19.5z" />
<glyph unicode="&#x22;" horiz-adv-x="645" d="M92 1210v312v14h141q12 0 20.5 -8.5t8.5 -20.5v-229zM383 1223v311v14h141q12 0 20.5 -8t8.5 -20v-230z" />
<glyph unicode="#" horiz-adv-x="1400" d="M33 375l37 147q1 12 11 20.5t21 8.5h195l100 424h-221l31 141q3 12 13.5 21.5t19.5 9.5h194l90 371q3 12 12.5 20t20.5 8h164l-96 -399h319l90 371q7 28 35 28h162l-96 -399h196l-31 -141q-3 -12 -13.5 -21.5t-20.5 -9.5h-170l-99 -424h197l-35 -148q-3 -11 -14 -19.5 t-21 -8.5h-172l-82 -348q-3 -12 -12 -21.5t-18 -9.5h-166l90 379h-322l-82 -348q-3 -13 -11.5 -22t-18.5 -9h-166l90 379h-221zM489 551h318l98 424h-317z" />
<glyph unicode="$" horiz-adv-x="1327" d="M82 0v150q0 12 8 19t19 7h479v533l-365 120q-46 15 -79 61t-33 95v205q0 145 101.5 246.5t246.5 101.5h129v201h135q27 0 27 -27v-174h413v-149q0 -11 -7 -19t-19 -8h-387v-531l370 -120q46 -15 79.5 -62t33.5 -96v-203q0 -144 -102.5 -247t-245.5 -103h-135v-193h-136 q-26 0 -26 27v166h-506zM303 1022q0 -17 11 -31.5t26 -19.5l248 -82v473h-129q-65 0 -110.5 -46t-45.5 -110v-184zM750 176h135q64 0 109.5 45.5t45.5 110.5v186q0 15 -10.5 30t-25.5 19l-254 84v-475z" />
<glyph unicode="%" horiz-adv-x="1226" d="M0 1087v240q0 85 60 145t145 60h86q85 0 145 -60t60 -145v-240q0 -85 -60 -144.5t-145 -59.5h-86q-85 0 -145 59.5t-60 144.5zM119 0l766 1513q5 9 17 17t22 8h170l-766 -1513q-5 -10 -16.5 -17.5t-22.5 -7.5h-170zM178 1075q0 -10 8 -18t19 -8h86q12 0 20 7.5t8 18.5 v264q0 11 -8 19t-20 8h-86q-11 0 -19 -8t-8 -19v-264zM731 209v237q0 86 60 145.5t145 59.5h86q85 0 145 -59.5t60 -145.5v-237q0 -85 -60 -145t-145 -60h-86q-85 0 -145 60t-60 145zM909 197q0 -11 8.5 -19t18.5 -8h86q12 0 19.5 8t7.5 19v264q0 11 -7.5 18.5t-19.5 7.5 h-86q-11 0 -19 -8t-8 -18v-264z" />
<glyph unicode="&#x26;" horiz-adv-x="1458" d="M94 281v323q0 45 24 92t62 74l146 107l-99 94q-31 29 -51 75t-20 89v125q0 113 82.5 192.5t199.5 79.5h525v-379h-150q-11 0 -19 7.5t-8 19.5v180h-348q-39 0 -66.5 -26t-27.5 -62l-2 -150q0 -16 12 -28l678 -645l96 77q14 10 31.5 9t30.5 -11l102 -98l-127 -102 l287 -275v-49h-176q-22 0 -45 18l-203 193q-178 -131 -252 -186q-35 -23 -74 -23h-327q-116 0 -198.5 82t-82.5 197zM281 268q0 -38 28 -65t66 -27h284q27 0 52 14l192 140l-440 418l-172 -130q-10 -3 -10 -16v-334z" />
<glyph unicode="'" horiz-adv-x="331" d="M92 1210v312v14h141q12 0 20.5 -8.5t8.5 -20.5v-229z" />
<glyph unicode="(" horiz-adv-x="575" d="M129 158v1048q0 145 101.5 246.5t246.5 101.5v-147q0 -24 -26 -31q-56 -9 -92.5 -51.5t-36.5 -99.5v-1084q0 -57 36.5 -100.5t92.5 -52.5q11 -2 18.5 -10.5t7.5 -18.5v-149q-144 0 -246 102.5t-102 245.5z" />
<glyph unicode=")" horiz-adv-x="563" d="M72 -41q0 10 7.5 18.5t18.5 10.5q56 9 92.5 52.5t36.5 100.5v1084q0 57 -36.5 99.5t-92.5 51.5q-26 7 -26 31v147q145 0 246.5 -101.5t101.5 -246.5v-1048q0 -143 -102 -245.5t-246 -102.5v149z" />
<glyph unicode="*" horiz-adv-x="641" d="M80 1192l156 98l-134 86l2 -2q-14 6 -14 31q2 2 2 4l51 70l125 -95l-6 129q0 12 7.5 20.5t19.5 8.5h82l-9 -158l107 80q11 7 21.5 5t15.5 -13v2l49 -67l-154 -99l131 -86q13 -10 13 -20q-6 -9 -10 -19l-46 -65l-127 96l9 -131q0 -12 -7 -19.5t-18 -7.5h-84l4 156 l-102 -78q-8 -4 -18.5 -3t-16.5 7z" />
<glyph unicode="+" horiz-adv-x="651" d="M41 690v127q0 11 8.5 19t18.5 8h174v213h129q10 0 18 -8t8 -19v-186h201v-127q0 -11 -8 -19t-19 -8h-174v-211h-129q-10 0 -18 8t-8 19v184h-201z" />
<glyph unicode="," horiz-adv-x="425" d="M123 176v17h151q12 0 20.5 -9.5t8.5 -21.5v-254l-180 -107v375z" />
<glyph unicode="-" horiz-adv-x="825" d="M123 680v149q0 11 8.5 19t18.5 8h550v-149q0 -11 -8 -19t-18 -8h-551z" />
<glyph unicode="." horiz-adv-x="444" d="M123 29v164h162q12 0 20 -9.5t8 -21.5v-162h-161q-12 0 -20.5 9t-8.5 20z" />
<glyph unicode="/" horiz-adv-x="1046" d="M0 0l766 1513q5 10 16.5 17.5t22.5 7.5h170l-766 -1513q-5 -9 -17 -17t-22 -8h-170z" />
<glyph unicode="0" horiz-adv-x="1298" d="M125 299v920q0 143 100.5 236t247.5 93h342q74 0 136.5 -19t110.5 -56.5t75.5 -99t27.5 -142.5v-907q0 -143 -101.5 -237.5t-248.5 -94.5h-342q-149 0 -248.5 83t-99.5 224zM313 317l551 1047q-28 8 -45 8h-350q-65 0 -110.5 -45.5t-45.5 -109.5v-893v-7zM418 176 q32 -8 51 -8h350q65 0 110.5 46t45.5 110v893v14z" />
<glyph unicode="1" horiz-adv-x="544" d="M33 1391v147h340q11 0 18.5 -7.5t7.5 -19.5v-1511h-163q-10 0 -18.5 8t-8.5 19v1337h-150q-11 0 -18.5 7.5t-7.5 19.5z" />
<glyph unicode="2" horiz-adv-x="1304" d="M104 27v303q0 49 30 101.5t73 78.5l708 506q10 6 17.5 18t7.5 23v149q0 160 -158 160h-610q-11 0 -19 7.5t-8 19.5v147h637q152 0 251.5 -85t99.5 -241v-153q0 -117 -103 -180l-717 -516q-9 -4 -15.5 -16t-6.5 -23v-150h844q11 0 18.5 -8t7.5 -18v-150h-1030q-11 0 -19 8 t-8 19z" />
<glyph unicode="3" horiz-adv-x="1153" d="M68 0v147q0 11 8 19t18 8h576q66 0 110.5 40.5t44.5 104.5v369q0 11 -8 19t-18 8h-652q-26 0 -26 20v152h678q11 0 18.5 7.5t7.5 18.5v318q0 63 -44 100t-111 37h-568q-11 0 -18.5 7.5t-7.5 19.5v145h594q149 0 244.5 -83t95.5 -224v-301q4 -49 -19.5 -87.5t-62.5 -47.5 q34 -1 58 -30t24 -67v-374q0 -150 -95.5 -238t-244.5 -88h-602z" />
<glyph unicode="4" horiz-adv-x="1196" d="M66 430v109q0 38 24 69l709 932h157l2 -2q10 0 17.5 -8t7.5 -19v-1022h133q11 0 19 -7t8 -19v-144h-160v-319h-158q-10 0 -18 8t-8 19v292h-635q-48 0 -73 30t-25 81zM258 528q0 -39 29 -39h10h502v777l-531 -709q-10 -10 -10 -27v-2z" />
<glyph unicode="5" horiz-adv-x="1236" d="M129 905v606q0 12 8 19.5t19 7.5h868v-149q0 -11 -8 -19t-19 -8h-692v-373q0 -12 8 -19t19 -7h416q148 0 248 -89.5t100 -242.5v-299q0 -150 -100.5 -241t-247.5 -91h-617v150q0 10 8 18t19 8h590q64 0 109.5 45.5t45.5 110.5v297q0 65 -45.5 111t-109.5 46h-500 q-50 0 -84.5 35t-34.5 84z" />
<glyph unicode="6" horiz-adv-x="1314" d="M145 324v866q0 145 100 247.5t244 102.5h598v-149q0 -12 -7.5 -19.5t-18.5 -7.5h-572q-64 0 -109.5 -46.5t-45.5 -111.5v-291v-43q25 43 76 43h424q146 0 240.5 -89t94.5 -232v-260q0 -145 -95 -239.5t-240 -94.5h-345q-147 0 -245.5 90.5t-98.5 233.5zM334 332 q0 -65 45.5 -110.5t109.5 -45.5h345q64 0 109.5 45.5t45.5 110.5v252q0 64 -45.5 109.5t-109.5 45.5h-474q-10 0 -18 -7.5t-8 -18.5v-381z" />
<glyph unicode="7" horiz-adv-x="1126" d="M72 1393v145h905q49 0 73.5 -33t10.5 -80l-658 -1400q-13 -25 -34 -25h-172l616 1339q3 10 -3 18.5t-17 8.5h-695q-11 0 -18.5 7.5t-7.5 19.5z" />
<glyph unicode="8" horiz-adv-x="1329" d="M129 330v202q0 77 32 145t89 116q-121 108 -121 262v143q0 146 99 248t243 102h371q145 0 243.5 -99.5t98.5 -244.5v-149q0 -154 -121 -262q57 -48 89 -116t32 -145v-202q0 -144 -98.5 -241t-243.5 -97h-371q-145 0 -243.5 97t-98.5 241zM315 324q0 -65 46 -111.5 t110 -46.5h371q64 0 109.5 46.5t45.5 111.5v225q0 65 -45.5 110.5t-109.5 45.5h-371q-65 0 -110.5 -45.5t-45.5 -110.5v-225zM315 1038q0 -64 45.5 -109.5t110.5 -45.5h371q64 0 109.5 45.5t45.5 109.5v179q0 65 -45.5 114t-109.5 49h-371q-64 0 -110 -49t-46 -114v-179z " />
<glyph unicode="9" horiz-adv-x="1323" d="M137 946v260q0 145 95.5 239.5t240.5 94.5h344q147 0 245.5 -90t98.5 -233v-867q0 -145 -100 -247.5t-244 -102.5h-639v150q0 12 8 19t19 7h612q64 0 110 46.5t46 111.5v291v43q-25 -43 -76 -43h-424q-146 0 -241 89t-95 232zM317 956q0 -64 45.5 -109.5t110.5 -45.5h473 q11 0 19 8t8 18v381q0 64 -45.5 110t-110.5 46h-344q-65 0 -110.5 -46t-45.5 -110v-252z" />
<glyph unicode=":" horiz-adv-x="378" d="M96 29v164h162q12 0 20.5 -9.5t8.5 -21.5v-162h-162q-12 0 -20.5 9t-8.5 20zM96 717v162h162q12 0 20.5 -8.5t8.5 -20.5v-162h-162q-12 0 -20.5 8.5t-8.5 20.5z" />
<glyph unicode=";" horiz-adv-x="411" d="M106 717v162h162q12 0 20.5 -8.5t8.5 -20.5v-162h-162q-12 0 -20.5 8.5t-8.5 20.5zM113 176v17h149q12 0 20.5 -9.5t8.5 -21.5v-273l-178 -108v395z" />
<glyph unicode="&#x3c;" horiz-adv-x="700" d="M59 700v86q0 10 6.5 23.5t14.5 19.5l532 289v-127q0 -29 -30 -51l-367 -195l367 -192q30 -23 30 -53v-129l-532 286q-8 6 -14.5 19.5t-6.5 23.5z" />
<glyph unicode="=" horiz-adv-x="851" d="M86 430v127q0 23 25 23h606v-127q0 -23 -25 -23h-606zM86 745v129q0 25 25 25h606v-129q0 -25 -25 -25h-606z" />
<glyph unicode="&#x3e;" horiz-adv-x="774" d="M113 371v129q0 30 30 53l367 192l-367 195q-30 22 -30 51v127l532 -289q8 -6 14.5 -19.5t6.5 -23.5v-86q0 -10 -6.5 -23.5t-14.5 -19.5z" />
<glyph unicode="?" horiz-adv-x="1130" d="M86 1389v147h616q148 0 248.5 -81.5t100.5 -221.5v-248q0 -49 -33.5 -95t-79.5 -61l-358 -147q-15 -5 -26 -19.5t-11 -31.5v-289h-166q-11 0 -19 8t-8 19v299q0 50 33 95t80 60l366 148q15 4 26 19t11 30v197q0 62 -49 103.5t-115 41.5h-589q-11 0 -19 7.5t-8 19.5z M350 29v164h162q12 0 21.5 -9t9.5 -20v-164h-164q-12 0 -20.5 8.5t-8.5 20.5z" />
<glyph unicode="@" horiz-adv-x="1540" d="M127 106v865q0 120 85 204.5t204 84.5h698q120 0 204.5 -84.5t84.5 -204.5v-834h-756q-104 0 -178 73t-74 177v53q0 104 74 177t178 73h279h2q-2 2 0 4v41q0 34 -25 58t-59 24h-348q-11 0 -20 10t-9 23v129h377q104 0 178 -73t74 -177v-446h164v723q0 47 -34 80.5 t-81 33.5h-758q-48 0 -82.5 -33.5t-34.5 -80.5v-908q0 -47 34.5 -80.5t82.5 -33.5h774q22 0 37.5 -15t15.5 -37v-88h-798q-122 0 -205.5 72.5t-83.5 189.5zM563 365q0 -34 25 -58t59 -24h281v252q-14 -7 -31 -7h-250q-34 0 -59 -24t-25 -58v-81z" />
<glyph unicode="A" horiz-adv-x="1529" d="M27 0l499 1423q19 52 63 83.5t99 31.5h244q17 0 24 -14l537 -1524h-168q-13 0 -23.5 8t-13.5 19l-137 395h-782l-138 -395q-3 -11 -13.5 -19t-22.5 -8h-168zM430 598h660l-267 764h-100q-27 0 -37 -27z" />
<glyph unicode="B" horiz-adv-x="1355" d="M129 119v1304q0 47 34 81t81 34h32h623q145 0 246.5 -101.5t101.5 -246.5v-156q0 -78 -54.5 -157t-133.5 -95q80 -21 134 -98t54 -154v-180q0 -145 -101.5 -247.5t-246.5 -102.5h-651q-50 0 -84.5 35t-34.5 84zM322 215q0 -16 10.5 -27.5t27.5 -11.5h539q64 0 110 46.5 t46 111.5v205q0 64 -45.5 109.5t-110.5 45.5h-577v-479zM322 870h577q65 0 110.5 46t45.5 110v180q0 64 -45.5 110t-110.5 46h-539q-17 0 -27.5 -11t-10.5 -28v-453z" />
<glyph unicode="C" horiz-adv-x="1247" d="M123 348v842q0 145 101.5 246.5t246.5 101.5h676v-149q0 -11 -8.5 -19t-18.5 -8h-649q-65 0 -110.5 -46t-45.5 -110v-874q0 -64 45.5 -110t110.5 -46h649q11 0 19 -8t8 -18v-150h-676q-144 0 -246 102.5t-102 245.5z" />
<glyph unicode="D" horiz-adv-x="1372" d="M127 119v1300q0 49 34.5 84t84.5 35h657q145 0 246.5 -101.5t101.5 -246.5v-842q0 -143 -102 -245.5t-246 -102.5h-657q-50 0 -84.5 35t-34.5 84zM319 215q0 -16 11 -27.5t28 -11.5h545q65 0 110.5 46t45.5 110v874q0 64 -45.5 110t-110.5 46h-545q-17 0 -28 -11t-11 -28 v-1108z" />
<glyph unicode="E" horiz-adv-x="1226" d="M123 348v842q0 145 101.5 246.5t246.5 101.5h690v-149q0 -11 -8 -19t-18 -8h-664q-65 0 -110.5 -46t-45.5 -110v-389q33 41 101 41h674v-149q0 -11 -8 -19t-19 -8h-748v-350q0 -64 45.5 -110t110.5 -46h664q11 0 18.5 -8t7.5 -18v-150h-690q-145 0 -246.5 101.5 t-101.5 246.5z" />
<glyph unicode="F" horiz-adv-x="1212" d="M125 0v1190q0 145 101.5 246.5t246.5 101.5h690v-149q0 -11 -8 -19t-18 -8h-664q-65 0 -110.5 -46t-45.5 -110v-393q33 45 103 45h696v-149q0 -11 -8 -19t-18 -8h-773v-655q0 -11 -8 -19t-18 -8h-166z" />
<glyph unicode="G" horiz-adv-x="1363" d="M125 340v858q0 145 101.5 246.5t246.5 101.5h703v-149q0 -11 -8.5 -19t-20.5 -8h-674q-65 0 -110.5 -46t-45.5 -110v-890q0 -64 45.5 -110t110.5 -46h424q66 0 120 46.5t54 109.5v370h-373q-10 0 -18 8t-8 19v149h547q11 0 18.5 -8t7.5 -18v-525q0 -157 -98 -242 t-250 -85h-424q-145 0 -246.5 101.5t-101.5 246.5z" />
<glyph unicode="H" horiz-adv-x="1368" d="M123 0v1538h166q10 0 18 -8t8 -19v-653h736v653q0 11 8 19t18 8h166v-1538h-166q-10 0 -18 8t-8 19v655h-736v-655q0 -11 -8 -19t-18 -8h-166z" />
<glyph unicode="I" horiz-adv-x="514" d="M166 27v1511h166q10 0 18 -8t8 -19v-1511h-165q-11 0 -19 8t-8 19z" />
<glyph unicode="J" horiz-adv-x="1013" d="M49 27v147h494q63 0 108 46t45 110v1032h-217q-10 0 -18 8t-8 19v147h436v-1190q0 -142 -101.5 -244t-244.5 -102h-467q-10 0 -18.5 8t-8.5 19z" />
<glyph unicode="K" horiz-adv-x="1370" d="M125 0v1511q0 11 8.5 19t18.5 8h165v-723q34 43 103 43h432q64 0 110 46t46 110v497q0 11 8 19t20 8h166v-508q0 -99 -51 -181.5t-135 -125.5l321 -723h-184q-10 0 -22 8t-17 17l-291 657h-467q-15 0 -27 -12t-12 -27v-616q0 -11 -8 -19t-18 -8h-166z" />
<glyph unicode="L" horiz-adv-x="1179" d="M123 354v1157q0 11 8.5 19t18.5 8h165v-1202q0 -66 46.5 -113t111.5 -47h639q11 0 19 -8t8 -18v-150h-666q-145 0 -247.5 104t-102.5 250z" />
<glyph unicode="M" horiz-adv-x="1722" d="M123 2v1507q0 12 8 19.5t19 7.5h143q15 0 31.5 -10t23.5 -23l510 -934l512 934q7 13 23.5 23t31.5 10h144q11 0 18.5 -7.5t7.5 -19.5v-1507h-165q-10 0 -18.5 8t-8.5 19v1196l-428 -813q-14 -25 -41 -25h-150q-27 0 -41 25l-428 813v-1196q0 -11 -8 -19t-18 -8h-166z" />
<glyph unicode="N" horiz-adv-x="1447" d="M123 0v1511q0 11 8.5 19t18.5 8h233q49 0 100 -30.5t74 -73.5l418 -789l186 -366q-9 71 -14 142.5t-9.5 158.5t-7.5 133v798q0 11 8 19t19 8h166v-1538h-178q-10 0 -22 8t-17 17l-700 1304q-7 13 -24 23t-32 10h-35v-1335q0 -11 -8 -19t-18 -8h-166z" />
<glyph unicode="O" horiz-adv-x="1402" d="M121 340v858q0 145 101.5 246.5t246.5 101.5h463q143 0 245.5 -102t102.5 -246v-858q0 -144 -102.5 -246t-245.5 -102h-463q-145 0 -246.5 101.5t-101.5 246.5zM313 324q0 -64 45.5 -110t110.5 -46h463q64 0 109.5 45.5t45.5 110.5v890q0 65 -45.5 110.5t-109.5 45.5 h-463q-65 0 -110.5 -46t-45.5 -110v-890z" />
<glyph unicode="P" horiz-adv-x="1292" d="M123 0v1419q0 49 34.5 84t84.5 35h641q144 0 246 -102.5t102 -245.5v-203q0 -143 -102 -245.5t-246 -102.5h-449q-47 0 -81.5 24t-37.5 58v-694q0 -11 -8 -19t-18 -8h-166zM315 854q0 -15 12 -27t27 -12h2h527q64 0 109.5 45.5t45.5 110.5v235q0 65 -45.5 110.5 t-109.5 45.5h-529q-17 0 -28 -11.5t-11 -27.5v-469z" />
<glyph unicode="Q" horiz-adv-x="1409" d="M125 340v858q0 145 101.5 246.5t246.5 101.5h463q143 0 245.5 -102t102.5 -246v-858q0 -117 -72 -210t-182 -124l72 -168h-144q-27 0 -38 25l-56 129h-391q-145 0 -246.5 101.5t-101.5 246.5zM317 324q0 -64 45.5 -110t110.5 -46h313l-81 186h143q29 0 39 -24l71 -160 q56 8 95 52t39 102v890q0 64 -46 110t-110 46h-463q-65 0 -110.5 -46t-45.5 -110v-890z" />
<glyph unicode="R" horiz-adv-x="1323" d="M123 0v1419q0 49 34.5 84t84.5 35h643q150 0 249 -89t99 -241v-198q0 -127 -78 -206.5t-201 -111.5l328 -692h-178q-10 0 -21 8t-16 17l-311 657h-262h-60q-95 0 -115 55h-4v-710q0 -11 -8 -19t-18 -8h-166zM315 897q0 -17 11.5 -28t27.5 -11h531q64 0 109.5 45.5 t45.5 110.5v192q0 65 -45.5 110.5t-109.5 45.5h-531q-17 0 -28 -11.5t-11 -27.5v-426z" />
<glyph unicode="S" horiz-adv-x="1302" d="M86 0v150q0 12 8 19t19 7h757q64 0 108 45.5t44 110.5v186q0 15 -11 30t-26 19l-786 262q-46 15 -79.5 61t-33.5 95v244q0 141 99.5 225t248.5 84h729v-149q0 -11 -7 -19t-19 -8h-703q-66 0 -112 -39t-46 -102v-199q0 -17 11 -31.5t26 -19.5l787 -260q45 -15 75.5 -61.5 t30.5 -96.5v-219q0 -144 -96.5 -239t-239.5 -95h-784z" />
<glyph unicode="T" horiz-adv-x="1187" d="M37 1362v149q0 11 8 19t18 8h1090v-149q0 -11 -8.5 -19t-18.5 -8h-438v-1335q0 -11 -7 -19t-19 -8h-166v1362h-459z" />
<glyph unicode="U" horiz-adv-x="1411" d="M125 340v1198h166q10 0 18 -8t8 -19v-1187q0 -64 45.5 -110t110.5 -46h463q64 0 110 46t46 110v1187q0 11 8 19t18 8h166v-1198q0 -144 -102.5 -246t-245.5 -102h-463q-145 0 -246.5 101.5t-101.5 246.5z" />
<glyph unicode="V" horiz-adv-x="1357" d="M39 1538h178q10 0 21 -8t14 -17l436 -1253l434 1253q5 10 15 17.5t20 7.5h178l-532 -1511q-3 -10 -13.5 -18.5t-21.5 -8.5h-162q-11 0 -21.5 8.5t-13.5 18.5z" />
<glyph unicode="W" horiz-adv-x="1935" d="M125 340v1198h166q10 0 18 -8t8 -19v-1187q0 -63 45.5 -105.5t112.5 -42.5h438q-41 38 -41 98v1264h166q10 0 18.5 -8t8.5 -19v-1296q0 -16 11 -27.5t28 -11.5h477q15 0 27 12t12 27v1296q0 11 8 19t19 8h165v-1419q0 -50 -34.5 -84.5t-83.5 -34.5h-1219 q-148 0 -249 98.5t-101 241.5z" />
<glyph unicode="X" horiz-adv-x="1304" d="M47 1538h184q28 0 39 -25l310 -636q8 -19 23.5 -37.5t31.5 -18.5h76q24 0 55 56l307 636q4 10 15 17.5t22 7.5h184l-364 -764q-23 -33 -56 -47q38 -18 60 -57l321 -670h-186q-11 0 -23 7.5t-16 17.5l-264 555q-9 16 -25 31.5t-30 15.5h-76q-16 0 -32 -15.5t-23 -31.5 l-265 -555q-14 -25 -39 -25h-188l320 664q22 41 63 63q-40 18 -61 59z" />
<glyph unicode="Y" horiz-adv-x="1394" d="M43 1538h180q10 0 21 -8t16 -17l256 -669q6 -15 22 -26t31 -11h256q15 0 31.5 11t22.5 26l256 669q13 25 36 25h181l-314 -797q-19 -51 -57 -83.5t-94 -32.5h-92v-598q0 -11 -8.5 -19t-18.5 -8h-168v625l-82 2q-62 0 -102.5 32t-59.5 82z" />
<glyph unicode="Z" horiz-adv-x="1398" d="M78 27v102q0 41 26 74l988 1159h-951v149q0 11 8.5 19t18.5 8h1116q10 0 18.5 -8t8.5 -19v-122q0 -45 -29 -74l-971 -1139h1000v-149q0 -11 -8.5 -19t-18.5 -8h-1180q-10 0 -18 8t-8 19z" />
<glyph unicode="[" horiz-adv-x="532" d="M94 -154v1670q0 15 11 25.5t28 10.5h320v-151q0 -12 -7.5 -19.5t-19.5 -7.5h-139v-1386h139q12 0 19.5 -7.5t7.5 -19.5v-154h-320q-17 0 -28 11.5t-11 27.5z" />
<glyph unicode="\" horiz-adv-x="987" d="M0 1538h170q10 0 22 -8t17 -17l766 -1513h-170q-11 0 -22.5 7.5t-16.5 17.5z" />
<glyph unicode="]" horiz-adv-x="610" d="M92 -39q0 12 7.5 19.5t19.5 7.5h139v1386h-139q-12 0 -19.5 7.5t-7.5 19.5v151h320q17 0 28 -10.5t11 -25.5v-1670q0 -16 -11 -27.5t-28 -11.5h-320v154z" />
<glyph unicode="^" horiz-adv-x="808" d="M14 1026l277 490q18 22 43 22h108q28 0 43 -22l279 -490h-154q-15 0 -32.5 9.5t-26.5 21.5l-162 305l-162 -305q-9 -12 -27.5 -21.5t-33.5 -9.5h-152z" />
<glyph unicode="_" horiz-adv-x="1171" d="M123 -18q0 10 8 18t19 8h917v-149q0 -11 -7.5 -19t-19.5 -8h-917v150z" />
<glyph unicode="`" horiz-adv-x="450" d="M72 1540h164q24 0 34 -24l88 -207h-147q-9 0 -20 6.5t-15 15.5z" />
<glyph unicode="a" d="M84 299v63q0 125 87.5 212.5t211.5 87.5h346q9 0 16 6.5t7 15.5v51q0 52 -32.5 86.5t-90.5 34.5h-408q-9 0 -15.5 7t-6.5 16v145h430q130 0 214.5 -76t84.5 -211v-671q0 -28 -19 -47t-47 -19h-22h-90h-367q-125 0 -212 87t-87 212zM262 295q0 -51 35 -86t86 -35h348 q9 0 15 7t6 16v325q-15 -27 -54 -30h-315q-51 0 -86 -35t-35 -86v-76z" />
<glyph unicode="b" horiz-adv-x="1081" d="M123 66v1470h156q9 0 15.5 -7t6.5 -16v-555q20 28 57 47t82 19h236q123 0 211 -87.5t88 -211.5v-426q0 -124 -88 -211.5t-211 -87.5h-488q-28 0 -46.5 19t-18.5 47zM301 190q0 -9 7 -14.5t16 -5.5h352q51 0 86 35t35 86v442q0 51 -35 86t-86 35h-277q-40 -5 -67.5 -34 t-30.5 -70v-560z" />
<glyph unicode="c" horiz-adv-x="899" d="M106 299v424q0 124 88.5 211.5t211.5 87.5h385v-148q0 -9 -7 -14.5t-16 -5.5h-362q-51 0 -86 -36t-35 -87v-440q0 -51 35 -86t86 -35h362q9 0 16 -7t7 -16v-147h-385q-123 0 -211.5 87.5t-88.5 211.5z" />
<glyph unicode="d" horiz-adv-x="1083" d="M106 299v426q0 125 85.5 212t209.5 87h238q47 0 84 -19t57 -47v555q0 9 7 16t16 7h155v-1470q0 -28 -18.5 -47t-46.5 -19h-487q-125 0 -212.5 87.5t-87.5 211.5zM285 291q0 -51 35 -86t86 -35h352q9 0 15.5 5.5t6.5 14.5v560q-3 41 -31 70t-67 34h-276q-51 0 -86 -35 t-35 -86v-442z" />
<glyph unicode="e" horiz-adv-x="1122" d="M123 299v434q0 138 84.5 214.5t214.5 76.5h274q130 0 214.5 -76.5t84.5 -214.5v-235q0 -21 -2.5 -33t-15 -21.5t-35.5 -9.5h-561q-52 0 -80 39v-182q0 -51 35 -86t86 -35h508q9 0 15.5 -7t6.5 -16v-147h-530q-124 0 -211.5 87t-87.5 212zM301 625q0 -19 21 -23h477 q9 0 15.5 7t6.5 16v110q0 121 -119 121h-280q-54 0 -87.5 -31t-33.5 -90v-110z" />
<glyph unicode="f" horiz-adv-x="655" d="M123 0v1243q0 125 87.5 212t211.5 87h207v-147q0 -9 -7 -16t-16 -7h-184q-51 0 -86 -35t-35 -86v-264q17 31 55 31h201v-148q0 -9 -6.5 -14.5t-15.5 -5.5h-234v-827q0 -9 -6.5 -16t-15.5 -7h-156z" />
<glyph unicode="g" horiz-adv-x="1085" d="M113 299v436q0 128 78.5 209.5t220.5 81.5h487q27 0 46.5 -19t19.5 -46v-1162q0 -124 -88 -211.5t-211 -87.5h-488v148q0 9 7 15.5t16 6.5h465q50 0 85 35t35 86v291q-17 -31 -56 -56.5t-85 -25.5h-246q-137 0 -211.5 85t-74.5 214zM291 291q0 -121 112 -121h283 q40 6 68.5 35.5t31.5 68.5v560q0 9 -6.5 15.5t-15.5 6.5h-352q-121 0 -121 -121v-444z" />
<glyph unicode="h" horiz-adv-x="1103" d="M125 23v1513h156q9 0 15.5 -7t6.5 -16v-555q20 28 57 47t82 19h260q128 0 206.5 -73.5t78.5 -213.5v-737h-156q-9 0 -15.5 7t-6.5 16v710q0 51 -35 86t-86 35h-287q-40 -5 -67.5 -34t-30.5 -70v-750h-156q-9 0 -15.5 7t-6.5 16z" />
<glyph unicode="i" horiz-adv-x="442" d="M129 23v1001h156q9 0 15.5 -5.5t6.5 -14.5v-1004h-155q-9 0 -16 7t-7 16zM129 1315v168h156q9 0 15.5 -7t6.5 -16v-168h-155q-9 0 -16 7t-7 16z" />
<glyph unicode="j" horiz-adv-x="440" d="M-66 -352v-148h78q123 0 211 87.5t88 211.5v201v305v699q0 9 -6.5 14.5t-15.5 5.5h-156v-719v-282v-232q0 -51 -35.5 -86t-85.5 -35h-55q-9 0 -16 -6.5t-7 -15.5zM133 1298v164h156q9 0 15.5 -6.5t6.5 -15.5v-164h-155q-9 0 -16 6.5t-7 15.5z" />
<glyph unicode="k" horiz-adv-x="1011" d="M123 0v1520h156q9 0 15.5 -7t6.5 -16v-940q17 35 55 35h252q51 0 86 36t35 87v286q0 9 7 16t16 7h155v-301q0 -84 -42 -153.5t-113 -108.5l229 -461h-176q-23 0 -33 20l-201 404h-247q-9 0 -16 -7t-7 -16v-378q0 -9 -6.5 -16t-15.5 -7h-156z" />
<glyph unicode="l" horiz-adv-x="434" d="M123 23v1513h156q9 0 15.5 -7t6.5 -16v-1513h-156q-9 0 -15.5 7t-6.5 16z" />
<glyph unicode="m" horiz-adv-x="1484" d="M127 0v891q0 55 38.5 94t94.5 39h805q125 0 212 -87t87 -212v-725h-156q-9 0 -15.5 7t-6.5 16v712q0 50 -35 85.5t-86 35.5h-266q37 -22 37 -57v-799h-156q-9 0 -16 7t-7 16v811q0 9 -6.5 15.5t-15.5 6.5h-309q-17 0 -21 -18v-815q0 -9 -6.5 -16t-15.5 -7h-156z" />
<glyph unicode="n" horiz-adv-x="1122" d="M123 0v891q0 55 38.5 94t94.5 39h438q124 0 211.5 -87t87.5 -212v-725h-155q-9 0 -16 7t-7 16v712q0 50 -35 85.5t-86 35.5h-370q-9 0 -16 -6.5t-7 -15.5v-811q0 -9 -6.5 -16t-15.5 -7h-156z" />
<glyph unicode="o" horiz-adv-x="1114" d="M119 285v454q0 123 87.5 211t211.5 88h270q124 0 212.5 -88t88.5 -211v-454q0 -124 -88 -211.5t-213 -87.5h-270q-124 0 -211.5 87t-87.5 212zM297 276q0 -51 35 -86.5t86 -35.5h270q51 0 87 35.5t36 86.5v472q0 50 -36 85t-87 35h-270q-51 0 -86 -35t-35 -85v-472z" />
<glyph unicode="p" horiz-adv-x="1103" d="M129 -500v1461q0 26 19 44.5t47 18.5h487q132 0 215.5 -72t83.5 -217v-446q0 -127 -87 -208t-212 -81h-236q-44 0 -81 19.5t-58 46.5v-543q0 -9 -6.5 -16t-15.5 -7h-156zM307 274q3 -40 31 -70t68 -34h276q50 0 85.5 35t35.5 86v444q0 121 -121 121h-352q-9 0 -16 -6.5 t-7 -15.5v-560z" />
<glyph unicode="q" horiz-adv-x="1114" d="M125 289v446q0 145 83.5 217t215.5 72h487q28 0 47 -18.5t19 -44.5v-1461h-156q-9 0 -15.5 7t-6.5 16v543q-21 -27 -58.5 -46.5t-81.5 -19.5h-235q-125 0 -212 81t-87 208zM303 291q0 -51 35.5 -86t85.5 -35h276q40 4 68 34t31 70v560q0 9 -7 15.5t-16 6.5h-352 q-121 0 -121 -121v-444z" />
<glyph unicode="r" horiz-adv-x="741" d="M123 23v1001h156q9 0 15.5 -5.5t6.5 -14.5v-46q20 28 57 47t82 19h238v-147q0 -9 -7 -16t-16 -7h-256q-40 0 -67.5 -27t-30.5 -65v-762h-156q-9 0 -15.5 7t-6.5 16z" />
<glyph unicode="s" horiz-adv-x="1105" d="M94 616v138q0 123 77.5 196.5t203.5 73.5h561v-145q0 -9 -7 -16t-16 -7h-538q-103 0 -103 -100v-60q0 -14 19 -22l633 -150q25 -4 40 -23t15 -44v-183q0 -130 -82 -202t-211 -72h-580v145q0 9 7 16t16 7h557q53 0 90 28.5t37 77.5v97q0 16 -18 20l-643 158 q-25 5 -41.5 23.5t-16.5 43.5z" />
<glyph unicode="t" horiz-adv-x="692" d="M125 299v1221h156q9 0 15.5 -7t6.5 -16v-512q16 37 59 37h218v-148q0 -9 -7 -14.5t-16 -5.5h-254v-563q0 -51 35 -86t86 -35h184q9 0 16 -7t7 -16v-147h-207q-123 0 -211 87.5t-88 211.5z" />
<glyph unicode="u" horiz-adv-x="1120" d="M125 299v727h156q9 0 15.5 -6.5t6.5 -15.5v-713q0 -51 35 -86t86 -35h270q51 0 87 35t36 86v713q0 9 7 15.5t16 6.5h155v-727q0 -124 -88 -211.5t-213 -87.5h-270q-124 0 -211.5 87t-87.5 212z" />
<glyph unicode="v" horiz-adv-x="1017" d="M20 1026h175q17 0 24 -18l285 -727l284 727q7 18 27 18h174l-420 -1010q-6 -16 -24 -16h-84q-19 0 -25 16z" />
<glyph unicode="w" horiz-adv-x="1480" d="M121 299v725h155q9 0 16 -5.5t7 -14.5v-713q0 -51 35 -86t86 -35h266q-35 18 -35 57v797h156q9 0 15.5 -5.5t6.5 -14.5v-811q0 -9 6 -16t15 -7h309q9 0 15 7t6 16v-3v814q0 9 6.5 14.5t15.5 5.5h156v-891q0 -55 -39 -94t-94 -39h-805q-124 0 -211.5 87t-87.5 212z" />
<glyph unicode="x" horiz-adv-x="954" d="M43 1024h176q15 0 21 -12l188 -402q3 -10 18 -10h66q11 0 18 10l189 402q3 12 20 12h176l-235 -475q-12 -25 -37 -37q25 -12 37 -37l233 -475h-172q-12 0 -20 12l-191 404q-6 12 -18 12h-66q-15 0 -18 -12l-192 -404q-4 -12 -21 -12h-170l236 481q15 23 32 31 q-21 12 -34 35z" />
<glyph unicode="y" horiz-adv-x="1097" d="M121 299v725h155q9 0 16 -5.5t7 -14.5v-713q0 -50 35 -85.5t86 -35.5h272q40 6 69 35.5t32 68.5v750h155q9 0 16 -5.5t7 -14.5v-1205q0 -124 -88 -211.5t-211 -87.5h-504v148q0 9 6.5 15.5t15.5 6.5h482q50 0 85.5 36t35.5 85v275q-54 -66 -142 -66h-231 q-124 0 -211.5 88t-87.5 211z" />
<glyph unicode="z" horiz-adv-x="944" d="M61 23v79q0 58 37 101l555 633q4 4 4 10q0 14 -14 14h-528v144q0 9 6.5 14.5t15.5 5.5h707q9 0 15.5 -5.5t6.5 -14.5v-115q0 -58 -37 -101l-526 -598q-10 -10 0 -20q2 -4 8 -4h570v-143q0 -9 -7 -16t-16 -7h-774q-9 0 -16 7t-7 16z" />
<glyph unicode="{" horiz-adv-x="690" d="M123 602v148q61 0 104 43.5t43 105.5v332q3 140 97 236t251 96v-148q0 -25 -26 -31q-57 -12 -92 -53q-37 -40 -37 -98v-408q0 -57 -37.5 -99t-93.5 -48q-6 -2 0 -2q56 -6 93.5 -48.5t37.5 -99.5v-415q0 -58 37 -101q39 -42 92 -51q26 -9 26 -31v-147q-149 0 -248.5 86 t-99.5 244v342q0 61 -43 104t-104 43z" />
<glyph unicode="|" horiz-adv-x="485" d="M156 -166v1757h166q26 0 26 -26v-1758h-166q-26 0 -26 27z" />
<glyph unicode="}" horiz-adv-x="675" d="M96 -70q0 22 27 31q53 9 92 51q37 43 37 101v415q0 57 37.5 99.5t93.5 48.5q6 0 0 2q-56 6 -93.5 48t-37.5 99v408q0 58 -37 98q-35 41 -92 53q-27 6 -27 31v148q157 0 251 -96t97 -236v-332q0 -62 43.5 -105.5t104.5 -43.5v-148q-62 0 -105 -43t-43 -104v-342 q0 -158 -99.5 -244t-248.5 -86v147z" />
<glyph unicode="~" horiz-adv-x="1103" d="M141 643l41 152q12 46 55.5 71t90.5 13l452 -123q11 -3 20.5 2.5t12.5 15.5l8 29q3 9 13 15t20 3l160 -43l-37 -139q-13 -47 -56.5 -71.5t-89.5 -12.5l-454 123q-9 3 -19 -3.5t-12 -15.5l-12 -41q-3 -10 -12.5 -15.5t-20.5 -2.5z" />
<glyph unicode="&#xa1;" horiz-adv-x="485" d="M145 -446v1163h166q11 0 19 -7.5t8 -19.5v-1163h-166q-10 0 -18.5 8.5t-8.5 18.5zM145 899v164h164q12 0 20.5 -8.5t8.5 -20.5v-164h-164q-12 0 -20.5 9t-8.5 20z" />
<glyph unicode="&#xa8;" horiz-adv-x="862" d="M123 1376v160h158q12 0 20 -9.5t8 -21.5v-157h-157q-12 0 -20.5 8.5t-8.5 19.5zM541 1376v160h157q12 0 20.5 -9.5t8.5 -21.5v-157h-158q-12 0 -20 8.5t-8 19.5z" />
<glyph unicode="&#xad;" horiz-adv-x="825" d="M123 680v149q0 11 8.5 19t18.5 8h550v-149q0 -11 -8 -19t-18 -8h-551z" />
<glyph unicode="&#xb0;" horiz-adv-x="700" d="M115 1247v123q0 68 49.5 118t116.5 50h122q67 0 116.5 -50t49.5 -118v-123q0 -69 -49 -117.5t-117 -48.5h-122q-68 0 -117 48.5t-49 117.5zM229 1239q0 -17 13 -30t30 -13h140q20 0 31.5 12.5t11.5 30.5v139q0 43 -43 43h-140q-18 0 -30.5 -11.5t-12.5 -31.5v-139z" />
<glyph unicode="&#xb1;" horiz-adv-x="841" d="M119 164h551q10 0 18 8t8 18v150h-551q-10 0 -18 -8t-8 -19v-149zM121 672v149q0 11 8 19t18 8h175v201h149q11 0 19 -8.5t8 -18.5v-174h200v-150q0 -10 -8 -18t-18 -8h-174v-201h-150q-10 0 -18 8t-8 19v174h-201z" />
<glyph unicode="&#xb4;" horiz-adv-x="471" d="M115 1313l88 207q10 24 35 24h145l-86 -209q-11 -22 -37 -22h-145z" />
<glyph unicode="&#xb8;" horiz-adv-x="673" d="M154 -324q0 17 12 29t29 12h223q6 0 11 5t5 12v55q0 6 -5 11t-11 5h-195l56 201h112l-29 -98h72q50 0 84.5 -35t34.5 -84v-72q0 -49 -34.5 -83.5t-84.5 -34.5h-280v77z" />
<glyph unicode="&#xbf;" horiz-adv-x="1140" d="M98 78q0 49 33.5 94.5t79.5 60.5l358 148q15 5 26 19.5t11 31.5v289h166q10 0 18.5 -8.5t8.5 -18.5v-299q0 -50 -33 -95t-80 -60l-367 -148q-15 -4 -25.5 -19t-10.5 -30v-197q0 -62 48.5 -103.5t114.5 -41.5h590q11 0 19 -7.5t8 -19.5v-147h-617q-148 0 -248 81.5 t-100 221.5v248zM606 899v164h164q12 0 20.5 -8.5t8.5 -20.5v-164h-162q-12 0 -21.5 9t-9.5 20z" />
<glyph unicode="&#xc0;" horiz-adv-x="1581" d="M57 0l500 1423q19 52 63 83.5t99 31.5h244q17 0 24 -14l537 -1524h-168q-13 0 -23.5 8t-13.5 19l-137 395h-783l-137 -395q-3 -11 -14 -19t-23 -8h-168zM461 598h659l-266 764h-100q-27 0 -37 -27zM573 1870h199q12 0 24 -7t17 -16l107 -196h-179q-11 0 -24 6.5t-17 13.5 z" />
<glyph unicode="&#xc1;" horiz-adv-x="1581" d="M57 0l500 1423q19 52 63 83.5t99 31.5h244q17 0 24 -14l537 -1524h-168q-13 0 -23.5 8t-13.5 19l-137 395h-783l-137 -395q-3 -11 -14 -19t-23 -8h-168zM461 598h659l-266 764h-100q-27 0 -37 -27zM700 1651l105 184q10 20 41 20h194l-122 -184q-6 -7 -20 -13.5t-24 -6.5 h-174z" />
<glyph unicode="&#xc2;" horiz-adv-x="1581" d="M57 0l500 1423q19 52 63 83.5t99 31.5h244q17 0 24 -14l537 -1524h-168q-13 0 -23.5 8t-13.5 19l-137 395h-783l-137 -395q-3 -11 -14 -19t-23 -8h-168zM461 598h659l-266 764h-100q-27 0 -37 -27zM465 1645l215 202q6 11 20.5 20t26.5 9h141q12 0 26.5 -9t20.5 -20 l218 -202h-160h-6.5h-7.5t-7.5 0.5t-8.5 2l-9 4.5t-11 7t-12 10t-14 14l-98 93l-101 -95q-9 -10 -18 -17.5t-14.5 -11t-13 -5.5t-10 -2.5t-9.5 0t-8 0.5h-160z" />
<glyph unicode="&#xc3;" horiz-adv-x="1581" d="M57 0l500 1423q19 52 63 83.5t99 31.5h244q17 0 24 -14l537 -1524h-168q-13 0 -23.5 8t-13.5 19l-137 395h-783l-137 -395q-3 -11 -14 -19t-23 -8h-168zM461 598h659l-266 764h-100q-27 0 -37 -27zM541 1683v150q0 29 21.5 50.5t51.5 21.5h86q32 0 62 -17l112 -69 q13 -9 27 -9h14q9 0 16 7t7 16v39q0 14 10 23.5t23 9.5h84v-150q0 -29 -21.5 -50.5t-52.5 -21.5h-88q-29 0 -59 17l-113 69q-18 9 -29 9h-12q-9 0 -16 -7t-7 -16v-39q0 -14 -9.5 -23.5t-22.5 -9.5h-84z" />
<glyph unicode="&#xc4;" horiz-adv-x="1581" d="M57 0l500 1423q19 52 63 83.5t99 31.5h244q17 0 24 -14l537 -1524h-168q-13 0 -23.5 8t-13.5 19l-137 395h-783l-137 -395q-3 -11 -14 -19t-23 -8h-168zM461 598h659l-266 764h-100q-27 0 -37 -27zM492 1710v160h157q12 0 20.5 -9.5t8.5 -21.5v-158h-158q-12 0 -20 9 t-8 20zM909 1710v160h158q12 0 20.5 -9.5t8.5 -21.5v-158h-158q-12 0 -20.5 9t-8.5 20z" />
<glyph unicode="&#xc5;" horiz-adv-x="1581" d="M57 0l500 1423q19 52 63 83.5t99 31.5h244q17 0 24 -14l537 -1524h-168q-13 0 -23.5 8t-13.5 19l-137 395h-783l-137 -395q-3 -11 -14 -19t-23 -8h-168zM461 598h659l-266 764h-100q-27 0 -37 -27zM596 1767v93q0 51 41 88t98 37h105q57 0 98 -37t41 -88v-93 q0 -51 -41 -88t-98 -37h-105q-57 0 -98 37t-41 88zM719 1776q0 -9 8 -17t18 -8h84q12 0 20.5 8t8.5 17v75q0 10 -8.5 17.5t-20.5 7.5h-84q-11 0 -18.5 -7.5t-7.5 -17.5v-75z" />
<glyph unicode="&#xc6;" horiz-adv-x="1921" d="M0 0l502 1423q17 52 61.5 83.5t100.5 31.5h1191v-141q0 -11 -8 -19t-18 -8h-735v-553q38 41 100 41h590v-149q0 -11 -8 -19t-19 -8h-663v-350q0 -64 46 -110t111 -46h578q11 0 18.5 -8t7.5 -18v-150h-598q-145 0 -247.5 101.5t-102.5 246.5v74h-565l-137 -395 q-7 -27 -37 -27h-168zM403 598h504v772h-209q-29 0 -39 -27z" />
<glyph unicode="&#xc7;" horiz-adv-x="1196" d="M113 348v842q0 145 101.5 246.5t246.5 101.5h676v-149q0 -11 -8.5 -19t-18.5 -8h-649q-65 0 -110.5 -46t-45.5 -110v-874q0 -64 45.5 -110t110.5 -46h649q11 0 19 -8t8 -18v-150h-383l-29 -100h78q53 0 90 -37.5t37 -91.5v-76q0 -53 -37 -90t-90 -37h-301v82q0 19 13 32 t30 13h239q19 0 19 16v60q0 7 -5.5 12.5t-13.5 5.5h-209l58 211h-172q-144 0 -246 102.5t-102 245.5z" />
<glyph unicode="&#xc8;" horiz-adv-x="1216" d="M113 348v842q0 145 101.5 246.5t246.5 101.5h690v-149q0 -11 -8.5 -19t-18.5 -8h-663q-65 0 -110.5 -46t-45.5 -110v-389q33 41 101 41h673v-149q0 -11 -8 -19t-18 -8h-748v-350q0 -64 45.5 -110t110.5 -46h663q11 0 19 -8t8 -18v-150h-690q-145 0 -246.5 101.5 t-101.5 246.5zM502 1896h164q24 0 34 -24l88 -207h-147q-9 0 -20 7t-15 16z" />
<glyph unicode="&#xc9;" horiz-adv-x="1216" d="M113 348v842q0 145 101.5 246.5t246.5 101.5h690v-149q0 -11 -8.5 -19t-18.5 -8h-663q-65 0 -110.5 -46t-45.5 -110v-389q33 41 101 41h673v-149q0 -11 -8 -19t-18 -8h-748v-350q0 -64 45.5 -110t110.5 -46h663q11 0 19 -8t8 -18v-150h-690q-145 0 -246.5 101.5 t-101.5 246.5zM606 1665l88 207q10 24 35 24h145l-86 -208q-12 -23 -36 -23h-146z" />
<glyph unicode="&#xca;" horiz-adv-x="1216" d="M113 348v842q0 145 101.5 246.5t246.5 101.5h690v-149q0 -11 -8.5 -19t-18.5 -8h-663q-65 0 -110.5 -46t-45.5 -110v-389q33 41 101 41h673v-149q0 -11 -8 -19t-18 -8h-748v-350q0 -64 45.5 -110t110.5 -46h663q11 0 19 -8t8 -18v-150h-690q-145 0 -246.5 101.5 t-101.5 246.5zM360 1661l218 221q21 29 49 29h141q12 0 26.5 -9t22.5 -20l217 -221h-162h-6h-7t-7.5 1t-8.5 2.5l-9 4.5t-11 7.5t-12 11.5t-14 16l-101 98l-100 -102q-9 -11 -18 -19t-14.5 -12t-13 -6t-10.5 -2.5t-10 0t-8 0.5h-162z" />
<glyph unicode="&#xcb;" horiz-adv-x="1216" d="M113 348v842q0 145 101.5 246.5t246.5 101.5h690v-149q0 -11 -8.5 -19t-18.5 -8h-663q-65 0 -110.5 -46t-45.5 -110v-389q33 41 101 41h673v-149q0 -11 -8 -19t-18 -8h-748v-350q0 -64 45.5 -110t110.5 -46h663q11 0 19 -8t8 -18v-150h-690q-145 0 -246.5 101.5 t-101.5 246.5zM410 1712v150h151q12 0 19.5 -8.5t7.5 -20.5v-147h-152q-10 0 -18 8.5t-8 17.5zM811 1712v150h152q12 0 20 -8.5t8 -20.5v-147h-151q-12 0 -20.5 8.5t-8.5 17.5z" />
<glyph unicode="&#xcc;" horiz-adv-x="458" d="M29 1933h164q24 0 34 -24l88 -207h-147q-9 0 -20 6.5t-15 15.5zM133 27v1511h166q11 0 19 -8t8 -19v-1511h-166q-10 0 -18.5 8t-8.5 19z" />
<glyph unicode="&#xcd;" horiz-adv-x="458" d="M133 27v1511h166q11 0 19 -8t8 -19v-1511h-166q-10 0 -18.5 8t-8.5 19zM135 1663l88 207q10 24 35 24h145l-86 -208q-5 -9 -15.5 -16t-20.5 -7h-146z" />
<glyph unicode="&#xce;" horiz-adv-x="458" d="M-29 1651l166 235q18 31 37 31h109q9 0 20 -10t16 -21l166 -235h-123h-4.5h-5t-5.5 1t-6.5 2.5t-7 5t-8.5 8t-9 12l-11 16.5l-76 106l-77 -108q-7 -12 -13.5 -20.5t-11 -13t-10.5 -7t-8 -3t-8 0t-7 0.5h-123zM133 27v1511h166q11 0 19 -8t8 -19v-1511h-166q-10 0 -18.5 8 t-8.5 19z" />
<glyph unicode="&#xcf;" horiz-adv-x="458" d="M-53 1718v160h157q12 0 20.5 -9.5t8.5 -21.5v-157h-158q-12 0 -20 8.5t-8 19.5zM133 27v1511h166q11 0 19 -8t8 -19v-1511h-166q-10 0 -18.5 8t-8.5 19zM317 1718v160h158q12 0 20.5 -9.5t8.5 -21.5v-157h-158q-12 0 -20.5 8.5t-8.5 19.5z" />
<glyph unicode="&#xd0;" horiz-adv-x="1400" d="M31 680v141q0 11 8 19t18 8h105v571q0 49 35 84t84 35h657q155 0 251.5 -100t96.5 -248v-842q0 -143 -102 -245.5t-246 -102.5h-657q-49 0 -84 35t-35 84v561h-131zM354 215q0 -16 11 -27.5t28 -11.5h545q64 0 110 46t46 110v874q0 64 -46 110t-110 46h-545 q-17 0 -28 -11t-11 -28v-475h271v-141q0 -11 -8.5 -19t-18.5 -8h-244v-465z" />
<glyph unicode="&#xd1;" horiz-adv-x="1447" d="M123 0v1511q0 11 8.5 19t18.5 8h233q49 0 100 -30.5t74 -73.5l418 -789l186 -366q-9 71 -14 142.5t-9.5 158.5t-7.5 133v798q0 11 8 19t19 8h166v-1538h-178q-10 0 -22 8t-17 17l-700 1304q-7 13 -24 23t-32 10h-35v-1335q0 -11 -8 -19t-18 -8h-166zM471 1714v150 q0 29 21.5 50t52.5 21h86q33 0 61 -16l113 -70q12 -8 26 -8h15q9 0 15.5 7t6.5 16v39q0 13 9.5 22.5t23.5 9.5h84v-149q0 -29 -21.5 -50.5t-52.5 -21.5h-88q-29 0 -59 17l-113 69q-16 8 -28 8h-13q-9 0 -15.5 -6.5t-6.5 -15.5v-39q0 -13 -10 -23t-23 -10h-84z" />
<glyph unicode="&#xd2;" horiz-adv-x="1402" d="M121 340q0 -145 101.5 -246.5t246.5 -101.5h463q143 0 245.5 102t102.5 246v858q0 144 -102.5 246t-245.5 102h-463q-145 0 -246.5 -101.5t-101.5 -246.5v-858zM313 324v890q0 64 45.5 110t110.5 46h463q64 0 109.5 -45.5t45.5 -110.5v-890q0 -65 -45.5 -110.5 t-109.5 -45.5h-463q-65 0 -110.5 46t-45.5 110zM520 1913h164q24 0 35 -25l88 -207h-148q-9 0 -19 7t-15 16z" />
<glyph unicode="&#xd3;" horiz-adv-x="1402" d="M121 340q0 -145 101.5 -246.5t246.5 -101.5h463q143 0 245.5 102t102.5 246v858q0 144 -102.5 246t-245.5 102h-463q-145 0 -246.5 -101.5t-101.5 -246.5v-858zM313 324v890q0 64 45.5 110t110.5 46h463q64 0 109.5 -45.5t45.5 -110.5v-890q0 -65 -45.5 -110.5 t-109.5 -45.5h-463q-65 0 -110.5 46t-45.5 110zM621 1679l88 207q11 25 34 25h146l-86 -209q-5 -9 -16 -16t-21 -7h-145z" />
<glyph unicode="&#xd4;" horiz-adv-x="1402" d="M121 340q0 -145 101.5 -246.5t246.5 -101.5h463q143 0 245.5 102t102.5 246v858q0 144 -102.5 246t-245.5 102h-463q-145 0 -246.5 -101.5t-101.5 -246.5v-858zM313 324v890q0 64 45.5 110t110.5 46h463q64 0 109.5 -45.5t45.5 -110.5v-890q0 -65 -45.5 -110.5 t-109.5 -45.5h-463q-65 0 -110.5 46t-45.5 110zM418 1683l194 207q6 10 19.5 18.5t23.5 8.5h127q25 0 43 -27l195 -207h-143h-4.5h-4.5t-5 0.5t-6 1t-6 2t-7 3.5l-7.5 5t-8.5 7t-9 9.5t-10 12.5l-90 93l-88 -97q-7 -9 -13.5 -15.5t-13 -10.5t-10.5 -6.5t-9.5 -3.5t-8 -1 h-7.5h-6h-145z" />
<glyph unicode="&#xd5;" horiz-adv-x="1402" d="M121 340q0 -145 101.5 -246.5t246.5 -101.5h463q143 0 245.5 102t102.5 246v858q0 144 -102.5 246t-245.5 102h-463q-145 0 -246.5 -101.5t-101.5 -246.5v-858zM313 324v890q0 64 45.5 110t110.5 46h463q64 0 109.5 -45.5t45.5 -110.5v-890q0 -65 -45.5 -110.5 t-109.5 -45.5h-463q-65 0 -110.5 46t-45.5 110zM444 1679v150q0 29 21.5 50.5t52.5 21.5h86q32 0 62 -17l112 -69q13 -9 27 -9h14q9 0 16 7t7 16v39q0 14 9.5 23.5t22.5 9.5h84v-150q0 -29 -21 -50.5t-52 -21.5h-88q-30 0 -60 17l-112 69q-18 9 -29 9h-12q-9 0 -16 -7 t-7 -16v-39q0 -14 -9.5 -23.5t-23.5 -9.5h-84z" />
<glyph unicode="&#xd6;" horiz-adv-x="1402" d="M121 340v858q0 145 101.5 246.5t246.5 101.5h463q143 0 245.5 -102t102.5 -246v-858q0 -144 -102.5 -246t-245.5 -102h-463q-145 0 -246.5 101.5t-101.5 246.5zM313 324q0 -64 45.5 -110t110.5 -46h463q64 0 109.5 45.5t45.5 110.5v890q0 65 -45.5 110.5t-109.5 45.5 h-463q-65 0 -110.5 -46t-45.5 -110v-890zM399 1714v160h158q12 0 20.5 -9.5t8.5 -21.5v-157h-158q-12 0 -20.5 8.5t-8.5 19.5zM817 1714v160h158q12 0 20.5 -9.5t8.5 -21.5v-157h-158q-12 0 -20.5 8.5t-8.5 19.5z" />
<glyph unicode="&#xd8;" horiz-adv-x="1447" d="M10 190v150q0 13 8 28t19 23l113 80v727q0 143 102 245.5t246 102.5h463q67 0 127.5 -19.5t109.5 -57.5t78 -101.5t29 -144.5l127 82v-156q0 -14 -8.5 -29t-20.5 -22l-94 -62v-696q0 -142 -102.5 -245t-245.5 -103h-463q-130 0 -227.5 86t-116.5 213zM338 324 q0 -64 46 -110t110 -46h473q63 0 109 46t46 110v587l-784 -497v-90zM338 596l784 504v114q0 64 -46 110t-109 46h-473q-64 0 -110 -46t-46 -110v-618z" />
<glyph unicode="&#xd9;" horiz-adv-x="1411" d="M125 340q0 -145 101.5 -246.5t246.5 -101.5h463q143 0 245.5 102t102.5 246v1198h-166q-10 0 -18 -8t-8 -19v-1187q0 -64 -46 -110t-110 -46h-463q-65 0 -110.5 46t-45.5 110v1187q0 11 -8 19t-18 8h-166v-1198zM532 1878h164q24 0 35 -25l88 -206h-147q-9 0 -20 6.5 t-15 15.5z" />
<glyph unicode="&#xda;" horiz-adv-x="1411" d="M125 340q0 -145 101.5 -246.5t246.5 -101.5h463q143 0 245.5 102t102.5 246v1198h-166q-10 0 -18 -8t-8 -19v-1187q0 -64 -46 -110t-110 -46h-463q-65 0 -110.5 46t-45.5 110v1187q0 11 -8 19t-18 8h-166v-1198zM608 1624l88 207q10 24 35 24h146l-86 -208q-5 -9 -16 -16 t-21 -7h-146z" />
<glyph unicode="&#xdb;" horiz-adv-x="1411" d="M125 340q0 -145 101.5 -246.5t246.5 -101.5h463q143 0 245.5 102t102.5 246v1198h-166q-10 0 -18 -8t-8 -19v-1187q0 -64 -46 -110t-110 -46h-463q-65 0 -110.5 46t-45.5 110v1187q0 11 -8 19t-18 8h-166v-1198zM385 1636l201 217q8 12 21.5 21.5t25.5 9.5h131 q10 0 23.5 -9.5t21.5 -21.5l201 -217h-150h-3q-32 -1 -66 43l-93 97l-94 -101q-7 -9 -13.5 -16t-13 -11.5t-10.5 -7t-9.5 -3.5t-7.5 -1h-8h-7h-150z" />
<glyph unicode="&#xdc;" horiz-adv-x="1411" d="M125 340v1198h166q10 0 18 -8t8 -19v-1187q0 -64 45.5 -110t110.5 -46h463q64 0 110 46t46 110v1187q0 11 8 19t18 8h166v-1198q0 -144 -102.5 -246t-245.5 -102h-463q-145 0 -246.5 101.5t-101.5 246.5zM416 1696v159h157q12 0 20.5 -9t8.5 -21v-158h-158q-12 0 -20 9 t-8 20zM834 1696v159h157q12 0 20.5 -9t8.5 -21v-158h-158q-12 0 -20 9t-8 20z" />
<glyph unicode="&#xdd;" horiz-adv-x="1394" d="M43 1538h180q10 0 21 -8t16 -17l256 -669q6 -15 22 -26t31 -11h256q15 0 31.5 11t22.5 26l256 669q13 25 36 25h181l-314 -797q-19 -51 -57 -83.5t-94 -32.5h-92v-598q0 -11 -8.5 -19t-18.5 -8h-168v625l-82 2q-62 0 -102.5 32t-59.5 82zM600 1622l88 207q10 24 35 24 h145l-86 -208q-12 -23 -37 -23h-145z" />
<glyph unicode="&#xde;" horiz-adv-x="1331" d="M135 0v1536h166q11 0 19 -8t8 -19v-383q5 33 39 56.5t79 23.5h449q144 0 246 -102.5t102 -245.5v-180q0 -143 -102 -245.5t-246 -102.5h-449q-45 0 -79 23t-39 55v-381q0 -11 -8 -19t-19 -8h-166zM328 545q0 -15 12 -27t27 -12h528q65 0 110.5 46t45.5 110v212 q0 64 -45.5 110t-110.5 46h-528q-15 0 -27 -12t-12 -27v-446z" />
<glyph unicode="&#xdf;" horiz-adv-x="1157" d="M160 2v1202q0 137 96.5 233.5t232.5 96.5h211q136 0 233 -97t97 -233v-147q0 -74 -52 -149t-126 -89q75 -21 126.5 -93.5t51.5 -145.5v-248q0 -137 -97 -234.5t-233 -97.5h-256v166h256q61 0 104.5 44.5t43.5 104.5v273q0 62 -43.5 106.5t-104.5 44.5h-254v160h254 q61 0 104.5 44.5t43.5 105.5v172q0 61 -43.5 106t-104.5 45h-211q-61 0 -104 -45t-43 -106v-1219h-182z" />
<glyph unicode="&#xe0;" d="M84 299v63q0 125 87.5 212.5t211.5 87.5h346q9 0 16 6.5t7 15.5v51q0 52 -32.5 86.5t-90.5 34.5h-408q-9 0 -15.5 7t-6.5 16v145h430q130 0 214.5 -76t84.5 -211v-671q0 -28 -19 -47t-47 -19h-22h-90h-367q-125 0 -212 87t-87 212zM262 295q0 -51 35 -86t86 -35h348 q9 0 15 7t6 16v325q-15 -27 -54 -30h-315q-51 0 -86 -35t-35 -86v-76zM360 1479h164q24 0 35 -25l88 -207h-147q-9 0 -20 7t-15 16z" />
<glyph unicode="&#xe1;" d="M84 299v63q0 125 87.5 212.5t211.5 87.5h346q9 0 16 6.5t7 15.5v51q0 52 -32.5 86.5t-90.5 34.5h-408q-9 0 -15.5 7t-6.5 16v145h430q130 0 214.5 -76t84.5 -211v-671q0 -28 -19 -47t-47 -19h-22h-90h-367q-125 0 -212 87t-87 212zM262 295q0 -51 35 -86t86 -35h348 q9 0 15 7t6 16v325q-15 -27 -54 -30h-315q-51 0 -86 -35t-35 -86v-76zM414 1243l88 207q11 25 35 25h145l-86 -209q-12 -23 -37 -23h-145z" />
<glyph unicode="&#xe2;" d="M84 299v63q0 125 87.5 212.5t211.5 87.5h346q9 0 16 6.5t7 15.5v51q0 52 -32.5 86.5t-90.5 34.5h-408q-9 0 -15.5 7t-6.5 16v145h430q130 0 214.5 -76t84.5 -211v-671q0 -28 -19 -47t-47 -19h-22h-90h-367q-125 0 -212 87t-87 212zM260 1206l170 224q17 30 39 30h111 q21 0 38 -30l173 -224h-127h-3q-9 0 -14.5 1t-17.5 11.5t-25 30.5l-80 101l-78 -103q-6 -10 -12 -17t-11.5 -11.5t-9 -7.5t-8.5 -4t-6.5 -1h-6.5h-5h-127zM262 295q0 -51 35 -86t86 -35h348q9 0 15 7t6 16v325q-15 -27 -54 -30h-315q-51 0 -86 -35t-35 -86v-76z" />
<glyph unicode="&#xe3;" d="M84 299v63q0 125 87.5 212.5t211.5 87.5h346q9 0 16 6.5t7 15.5v51q0 52 -32.5 86.5t-90.5 34.5h-408q-9 0 -15.5 7t-6.5 16v145h430q130 0 214.5 -76t84.5 -211v-671q0 -28 -19 -47t-47 -19h-22h-90h-367q-125 0 -212 87t-87 212zM262 295q0 -51 35 -86t86 -35h348 q9 0 15 7t6 16v325q-15 -27 -54 -30h-315q-51 0 -86 -35t-35 -86v-76zM283 1251v140q0 27 20 46t49 19h80q24 0 57 -14l105 -66q12 -8 24 -8h13q9 0 14.5 7t5.5 16v34q0 12 9.5 21.5t21.5 9.5h78v-139q0 -27 -19.5 -46.5t-48.5 -19.5h-82q-20 0 -55 15l-104 65q-16 8 -27 8 h-10q-9 0 -16 -6.5t-7 -15.5v-35q0 -14 -8.5 -22.5t-22.5 -8.5h-77z" />
<glyph unicode="&#xe4;" d="M84 299v63q0 125 87.5 212.5t211.5 87.5h346q9 0 16 6.5t7 15.5v51q0 52 -32.5 86.5t-90.5 34.5h-408q-9 0 -15.5 7t-6.5 16v145h430q130 0 214.5 -76t84.5 -211v-671q0 -28 -19 -47t-47 -19h-22h-90h-367q-125 0 -212 87t-87 212zM262 295q0 -51 35 -86t86 -35h348 q9 0 15 7t6 16v325q-15 -27 -54 -30h-315q-51 0 -86 -35t-35 -86v-76zM268 1286v158h142q12 0 19 -9t7 -22v-153h-143q-10 0 -17.5 8.5t-7.5 17.5zM647 1286v158h144q10 0 18 -9.5t8 -21.5v-153h-143q-11 0 -19 8t-8 18z" />
<glyph unicode="&#xe5;" d="M84 299v63q0 125 87.5 212.5t211.5 87.5h346q9 0 16 6.5t7 15.5v51q0 52 -32.5 86.5t-90.5 34.5h-408q-9 0 -15.5 7t-6.5 16v145h430q130 0 214.5 -76t84.5 -211v-671q0 -28 -19 -47t-47 -19h-22h-90h-367q-125 0 -212 87t-87 212zM262 295q0 -51 35 -86t86 -35h348 q9 0 15 7t6 16v325q-15 -27 -54 -30h-315q-51 0 -86 -35t-35 -86v-76zM350 1298v91q0 50 40.5 85t98.5 35h103q57 0 98 -35.5t41 -84.5v-91q0 -49 -41 -83.5t-98 -34.5h-103q-58 0 -98.5 34t-40.5 84zM471 1307q0 -9 8 -16t19 -7h86q10 0 18 7t8 16v73q0 9 -8 16t-18 7h-86 q-11 0 -19 -7t-8 -16v-73z" />
<glyph unicode="&#xe6;" horiz-adv-x="1783" d="M113 299v4q0 125 87.5 212t211.5 87h368v133q0 50 -36 85.5t-87 35.5h-434q-9 0 -15.5 7t-6.5 16v145h456q111 0 197 -86q88 88 209 88h274q125 0 212 -87t87 -212v-227q0 -27 -18.5 -46.5t-44.5 -19.5h-631v-141q0 -51 35.5 -87t85.5 -36h516q9 0 16 -5.5t7 -14.5v-148 h-539q-120 0 -209 86q-88 -88 -197 -88h-245q-124 0 -211.5 88t-87.5 211zM291 291q0 -51 35 -86t86 -35h245q51 0 87 35t36 86v141h-368q-51 0 -86 -35t-35 -86v-20zM942 604h496q9 0 15.5 7t6.5 16v108q0 51 -36 86t-87 35h-274q-50 0 -85.5 -35t-35.5 -86v-131z" />
<glyph unicode="&#xe7;" horiz-adv-x="899" d="M106 299v424q0 124 87.5 211.5t212.5 87.5h385v-148q0 -9 -7 -14.5t-16 -5.5h-362q-51 0 -86 -36t-35 -87v-440q0 -51 35 -86t86 -35h362q9 0 16 -7t7 -16v-147h-240l-19 -84h72q50 0 84.5 -35t34.5 -84v-63q0 -48 -35 -83.5t-84 -35.5h-262v63q0 17 11 28t28 11h223 q7 0 12 5.5t5 11.5v69q0 6 -5 11.5t-12 5.5h-194l47 180h-51q-125 0 -212.5 87.5t-87.5 211.5z" />
<glyph unicode="&#xe8;" horiz-adv-x="1122" d="M123 299v434q0 138 84.5 214.5t214.5 76.5h274q130 0 214.5 -76.5t84.5 -214.5v-235q0 -21 -2.5 -33t-15 -21.5t-35.5 -9.5h-561q-52 0 -80 39v-182q0 -51 35 -86t86 -35h508q9 0 15.5 -7t6.5 -16v-147h-530q-124 0 -211.5 87t-87.5 212zM301 625q0 -19 21 -23h477 q9 0 15.5 7t6.5 16v110q0 121 -119 121h-280q-54 0 -87.5 -31t-33.5 -90v-110zM385 1466h164q25 0 35 -24l88 -207h-148q-9 0 -20 6.5t-15 15.5z" />
<glyph unicode="&#xe9;" horiz-adv-x="1122" d="M123 299v434q0 138 84.5 214.5t214.5 76.5h274q130 0 214.5 -76.5t84.5 -214.5v-235q0 -21 -2.5 -33t-15 -21.5t-35.5 -9.5h-561q-52 0 -80 39v-182q0 -51 35 -86t86 -35h508q9 0 15.5 -7t6.5 -16v-147h-530q-124 0 -211.5 87t-87.5 212zM301 625q0 -19 21 -23h477 q9 0 15.5 7t6.5 16v110q0 121 -119 121h-280q-54 0 -87.5 -31t-33.5 -90v-110zM467 1241l88 207q11 25 35 25h145l-86 -209q-5 -9 -16 -16t-21 -7h-145z" />
<glyph unicode="&#xea;" horiz-adv-x="1122" d="M123 299v434q0 138 84.5 214.5t214.5 76.5h274q130 0 214.5 -76.5t84.5 -214.5v-235q0 -21 -2.5 -33t-15 -21.5t-35.5 -9.5h-561q-52 0 -80 39v-182q0 -51 35 -86t86 -35h508q9 0 15.5 -7t6.5 -16v-147h-530q-124 0 -211.5 87t-87.5 212zM279 1227l182 209 q6 11 18.5 19.5t22.5 8.5h116q10 0 22.5 -8.5t18.5 -19.5l183 -209h-135h-4.5h-4.5t-4.5 0.5t-5.5 1t-6 2t-6.5 3.5t-6.5 5t-8 6.5t-8.5 9t-9.5 11.5l-84 94l-82 -96q-7 -9 -13 -15.5t-11.5 -10.5t-9.5 -6.5t-9 -3.5t-7 -1h-7h-6h-135zM301 625q0 -19 21 -23h477q9 0 15.5 7 t6.5 16v110q0 121 -119 121h-280q-54 0 -87.5 -31t-33.5 -90v-110z" />
<glyph unicode="&#xeb;" horiz-adv-x="1122" d="M123 299v434q0 138 84.5 214.5t214.5 76.5h274q130 0 214.5 -76.5t84.5 -214.5v-235q0 -21 -2.5 -33t-15 -21.5t-35.5 -9.5h-561q-52 0 -80 39v-182q0 -51 35 -86t86 -35h508q9 0 15.5 -7t6.5 -16v-147h-530q-124 0 -211.5 87t-87.5 212zM291 1278v158h149 q10 0 18.5 -9.5t8.5 -21.5v-154h-150q-10 0 -18 9t-8 18zM301 625q0 -19 21 -23h477q9 0 15.5 7t6.5 16v110q0 121 -119 121h-280q-54 0 -87.5 -31t-33.5 -90v-110zM684 1278v158h147q12 0 19.5 -9.5t7.5 -21.5v-154h-147q-10 0 -18.5 9t-8.5 18z" />
<glyph unicode="&#xec;" horiz-adv-x="479" d="M61 1540h154q9 0 18.5 -8t14.5 -19l82 -213h-140q-8 0 -18 7t-14 16zM279 23v1001h155q9 0 16 -5.5t7 -14.5v-1004h-156q-9 0 -15.5 7t-6.5 16z" />
<glyph unicode="&#xed;" horiz-adv-x="483" d="M147 1286l84 230q11 28 33 28h137l-82 -233q-11 -25 -34 -25h-138zM283 23v1001h155q9 0 16 -5.5t7 -14.5v-1004h-156q-9 0 -15.5 7t-6.5 16z" />
<glyph unicode="&#xee;" horiz-adv-x="485" d="M-31 1274l172 237q4 12 16 21.5t23 9.5h111q23 0 39 -31l172 -237h-127q-11 0 -15.5 0.5t-18 11t-28.5 33.5l-77 106l-80 -108q-7 -12 -14.5 -20.5t-11.5 -13t-10.5 -7t-8.5 -3t-8 0t-7 0.5h-127zM283 23v1001h155q9 0 16 -5.5t7 -14.5v-1004h-156q-9 0 -15.5 7t-6.5 16z " />
<glyph unicode="&#xef;" horiz-adv-x="479" d="M-16 1329v160h157q12 0 20.5 -9.5t8.5 -21.5v-158h-158q-12 0 -20 9t-8 20zM279 23v1001h155q9 0 16 -5.5t7 -14.5v-1004h-156q-9 0 -15.5 7t-6.5 16zM313 1329v160h158q12 0 20.5 -9.5t8.5 -21.5v-158h-158q-12 0 -20.5 9t-8.5 20z" />
<glyph unicode="&#xf0;" horiz-adv-x="1089" d="M109 285v430q0 123 87.5 211t211.5 88h256l-129 188l-121 -78l-58 82l123 80l-170 256h187l112 -174l131 86l58 -82l-135 -88l262 -397q55 -77 55 -172v-430q0 -124 -88 -211.5t-213 -87.5h-270q-124 0 -211.5 87t-87.5 212zM287 276q0 -51 35 -86.5t86 -35.5h270 q51 0 87 35.5t36 86.5v447q0 50 -36 85.5t-87 35.5h-270q-51 0 -86 -35.5t-35 -85.5v-447z" />
<glyph unicode="&#xf1;" horiz-adv-x="1122" d="M123 0v891q0 55 38.5 94t94.5 39h438q124 0 211.5 -87t87.5 -212v-725h-155q-9 0 -16 7t-7 16v712q0 50 -35 85.5t-86 35.5h-370q-9 0 -16 -6.5t-7 -15.5v-811q0 -9 -6.5 -16t-15.5 -7h-156zM295 1260v149q0 29 21.5 50.5t52.5 21.5h86q31 0 61 -17l113 -69q13 -9 26 -9 h15q9 0 15.5 7t6.5 16v39q0 14 10 23.5t23 9.5h84v-150q0 -29 -21.5 -50t-52.5 -21h-88q-31 0 -59 16l-113 70q-16 8 -29 8h-12q-9 0 -15.5 -7t-6.5 -16v-39q0 -13 -9.5 -22.5t-23.5 -9.5h-84z" />
<glyph unicode="&#xf2;" horiz-adv-x="1114" d="M119 285q0 -125 87.5 -212t211.5 -87h270q125 0 213 87.5t88 211.5v454q0 123 -88.5 211t-212.5 88h-270q-124 0 -211.5 -88t-87.5 -211v-454zM297 276v472q0 50 35 85t86 35h270q51 0 87 -35t36 -85v-472q0 -51 -36 -86.5t-87 -35.5h-270q-51 0 -86 35.5t-35 86.5z M389 1479h164q24 0 35 -25l88 -207h-148q-22 0 -34 23z" />
<glyph unicode="&#xf3;" horiz-adv-x="1114" d="M119 285q0 -125 87.5 -212t211.5 -87h270q125 0 213 87.5t88 211.5v454q0 123 -88.5 211t-212.5 88h-270q-124 0 -211.5 -88t-87.5 -211v-454zM297 276v472q0 50 35 85t86 35h270q51 0 87 -35t36 -85v-472q0 -51 -36 -86.5t-87 -35.5h-270q-51 0 -86 35.5t-35 86.5z M465 1253l88 207q11 25 35 25h145l-86 -209q-5 -9 -16 -16t-21 -7h-145z" />
<glyph unicode="&#xf4;" horiz-adv-x="1114" d="M119 285q0 -125 87.5 -212t211.5 -87h270q125 0 213 87.5t88 211.5v454q0 123 -88.5 211t-212.5 88h-270q-124 0 -211.5 -88t-87.5 -211v-454zM283 1237l180 211q6 11 18.5 20t22.5 9h117q10 0 22.5 -9t18.5 -20l180 -211h-135h-5h-7t-7 1t-9 3.5t-9.5 7t-11.5 11.5 t-13 16l-84 96l-82 -98q-8 -11 -15.5 -18.5t-12.5 -11t-11 -5.5t-8.5 -2.5t-8.5 0t-7 0.5h-133zM297 276v472q0 50 35 85t86 35h270q51 0 87 -35t36 -85v-472q0 -51 -36 -86.5t-87 -35.5h-270q-51 0 -86 35.5t-35 86.5z" />
<glyph unicode="&#xf5;" horiz-adv-x="1114" d="M119 285q0 -125 87.5 -212t211.5 -87h270q125 0 213 87.5t88 211.5v454q0 123 -88.5 211t-212.5 88h-270q-124 0 -211.5 -88t-87.5 -211v-454zM297 276v472q0 50 35 85t86 35h270q51 0 87 -35t36 -85v-472q0 -51 -36 -86.5t-87 -35.5h-270q-51 0 -86 35.5t-35 86.5z M311 1225v153q0 30 20.5 52t49.5 22h82q34 0 59 -18l107 -72q12 -8 26 -8h13q9 0 15.5 7t6.5 17v39q0 14 9 24.5t22 10.5h80v-154q0 -31 -20.5 -52t-49.5 -21h-84q-29 0 -57 16l-107 72q-16 8 -28 8h-11q-9 0 -15.5 -7t-6.5 -16v-41q0 -14 -9 -23t-22 -9h-80z" />
<glyph unicode="&#xf6;" horiz-adv-x="1114" d="M119 285v454q0 123 87.5 211t211.5 88h270q124 0 212.5 -88t88.5 -211v-454q0 -124 -88 -211.5t-213 -87.5h-270q-124 0 -211.5 87t-87.5 212zM297 276q0 -51 35 -86.5t86 -35.5h270q51 0 87 35.5t36 86.5v472q0 50 -36 85t-87 35h-270q-51 0 -86 -35t-35 -85v-472z M297 1329v158h156q11 0 18.5 -9t7.5 -20v-155h-155q-10 0 -18.5 8.5t-8.5 17.5zM657 1329v158h156q10 0 18.5 -9t8.5 -20v-155h-156q-11 0 -19 8t-8 18z" />
<glyph unicode="&#xf8;" horiz-adv-x="1130" d="M45 94v117q0 10 7 22.5t16 18.5l77 51v436q0 123 88 211t211 88h271q94 0 169 -51.5t109 -136.5l123 80v-119q0 -26 -22 -41l-80 -51v-434q0 -125 -87 -212t-212 -87h-271q-93 0 -168 51.5t-108 134.5zM324 274q2 -50 36.5 -84t83.5 -34h271q51 0 87 34.5t36 85.5v328z M324 418l514 332q-2 50 -37 84t-86 34h-271q-51 0 -85.5 -35t-34.5 -85v-330z" />
<glyph unicode="&#xf9;" horiz-adv-x="1120" d="M125 299v727h156q9 0 15.5 -6.5t6.5 -15.5v-713q0 -51 35 -86t86 -35h270q51 0 87 35t36 86v713q0 9 7 15.5t16 6.5h155v-727q0 -124 -88 -211.5t-213 -87.5h-270q-124 0 -211.5 87t-87.5 212zM395 1475h164q24 0 35 -25l88 -207h-147q-9 0 -20 7t-15 16z" />
<glyph unicode="&#xfa;" horiz-adv-x="1120" d="M125 299v727h156q9 0 15.5 -6.5t6.5 -15.5v-713q0 -51 35 -86t86 -35h270q51 0 87 35t36 86v713q0 9 7 15.5t16 6.5h155v-727q0 -124 -88 -211.5t-213 -87.5h-270q-124 0 -211.5 87t-87.5 212zM446 1229l89 207q10 24 34 24h146l-86 -209q-11 -22 -37 -22h-146z" />
<glyph unicode="&#xfb;" horiz-adv-x="1120" d="M125 299v727h156q9 0 15.5 -6.5t6.5 -15.5v-713q0 -51 35 -86t86 -35h270q51 0 87 35t36 86v713q0 9 7 15.5t16 6.5h155v-727q0 -124 -88 -211.5t-213 -87.5h-270q-124 0 -211.5 87t-87.5 212zM283 1227l180 217q6 12 18.5 21.5t22.5 9.5h119q11 0 23 -9.5t16 -21.5 l182 -217h-135h-4h-5t-4.5 0.5t-5.5 1t-5.5 2t-6 4t-7 5.5t-8 7.5t-7.5 10t-9 12.5l-84 96l-84 -100q-7 -9 -13 -16t-11.5 -11.5t-9.5 -7t-9 -3.5t-7 -1h-7h-6h-133z" />
<glyph unicode="&#xfc;" horiz-adv-x="1120" d="M125 299v727h156q9 0 15.5 -6.5t6.5 -15.5v-713q0 -51 35 -86t86 -35h270q51 0 87 35t36 86v713q0 9 7 15.5t16 6.5h155v-727q0 -124 -88 -211.5t-213 -87.5h-270q-124 0 -211.5 87t-87.5 212zM291 1300v160h147q12 0 19.5 -9t7.5 -21v-158h-148q-11 0 -18.5 8.5 t-7.5 19.5zM684 1300v160h147q12 0 20.5 -9t8.5 -21v-158h-149q-12 0 -19.5 8.5t-7.5 19.5z" />
<glyph unicode="&#xfd;" horiz-adv-x="1097" d="M121 299v725h155q9 0 16 -5.5t7 -14.5v-713q0 -50 35 -85.5t86 -35.5h272q40 6 69 35.5t32 68.5v750h155q9 0 16 -5.5t7 -14.5v-1205q0 -124 -88 -211.5t-211 -87.5h-504v148q0 9 6.5 15.5t15.5 6.5h482q50 0 85.5 36t35.5 85v275q-54 -66 -142 -66h-231 q-124 0 -211.5 88t-87.5 211zM430 1270l88 207q10 24 35 24h145l-86 -209q-11 -22 -37 -22h-145z" />
<glyph unicode="&#xfe;" horiz-adv-x="1132" d="M131 -500v2024h156q9 0 15.5 -7t6.5 -16v-543q21 27 58.5 46.5t81.5 19.5h256q123 0 211 -88t88 -211v-426q0 -123 -88 -211t-211 -88h-256q-44 0 -81.5 19.5t-58.5 46.5v-543q0 -9 -6.5 -16t-15.5 -7h-156zM309 274q3 -40 31 -70t68 -34h297q50 0 85 35t35 86v442 q0 51 -35 86t-85 35h-297q-40 -4 -68 -34t-31 -70v-476z" />
<glyph unicode="&#xff;" horiz-adv-x="1097" d="M121 299v725h155q9 0 16 -5.5t7 -14.5v-713q0 -50 35 -85.5t86 -35.5h272q40 6 69 35.5t32 68.5v750h155q9 0 16 -5.5t7 -14.5v-1205q0 -124 -88 -211.5t-211 -87.5h-504v148q0 9 6.5 15.5t15.5 6.5h482q50 0 85.5 36t35.5 85v275q-54 -66 -142 -66h-231 q-124 0 -211.5 88t-87.5 211zM254 1333v160h158q12 0 20 -9.5t8 -21.5v-157h-157q-12 0 -20.5 8.5t-8.5 19.5zM672 1333v160h157q12 0 20.5 -9.5t8.5 -21.5v-157h-158q-12 0 -20 8.5t-8 19.5z" />
<glyph unicode="&#x152;" horiz-adv-x="2123" d="M121 340v858q0 143 102 245.5t246 102.5h418q134 0 241 -114q101 106 242 106h653v-149q0 -11 -8 -19t-18 -8h-627q-64 0 -110 -46t-46 -110v-389q33 41 101 41h637v-149q0 -11 -8 -19t-19 -8h-711v-350q0 -64 46 -110t110 -46h627q11 0 18.5 -8t7.5 -18v-150h-653 q-144 0 -242 106q-107 -114 -241 -114h-418q-144 0 -246 102.5t-102 245.5zM313 324q0 -64 45.5 -110t110.5 -46h418q64 0 109.5 45.5t45.5 110.5v890q0 65 -45.5 110.5t-109.5 45.5h-418q-65 0 -110.5 -46t-45.5 -110v-890z" />
<glyph unicode="&#x153;" horiz-adv-x="1730" d="M135 293v442q0 120 85.5 205.5t205.5 85.5h236q114 0 202 -88q88 88 193 88h246q125 0 212 -87t87 -212v-227q0 -27 -19.5 -46.5t-46.5 -19.5h-600v-141q0 -51 35.5 -86t85.5 -35h485q9 0 16 -6.5t7 -15.5v-148h-508q-104 0 -195 88q-85 -88 -200 -88h-236 q-120 0 -205.5 85.5t-85.5 205.5zM307 285q0 -48 35 -82.5t84 -34.5h236q47 0 81.5 35t34.5 82v458q0 49 -34 83t-82 34h-236q-50 0 -84.5 -34t-34.5 -83v-458zM936 604h467q9 0 14.5 7t5.5 16v108q0 51 -34.5 86t-85.5 35h-246q-50 0 -85.5 -35t-35.5 -86v-131z" />
<glyph unicode="&#x178;" horiz-adv-x="1394" d="M43 1538h180q10 0 21 -8t16 -17l256 -669q6 -15 22 -26t31 -11h256q15 0 31.5 11t22.5 26l256 669q13 25 36 25h181l-314 -797q-19 -51 -57 -83.5t-94 -32.5h-92v-598q0 -11 -8.5 -19t-18.5 -8h-168v625l-82 2q-62 0 -102.5 32t-59.5 82zM391 1698v160h158 q12 0 20.5 -9.5t8.5 -21.5v-158h-158q-12 0 -20.5 9t-8.5 20zM809 1698v160h158q12 0 20 -9.5t8 -21.5v-158h-157q-12 0 -20.5 9t-8.5 20z" />
<glyph unicode="&#x2c6;" horiz-adv-x="643" d="M41 1335l182 183q6 9 18.5 16.5t22.5 7.5h119q10 0 22.5 -7.5t18.5 -16.5l182 -183h-135h-5h-6t-6 1t-7.5 2t-7.5 3.5t-9 6.5t-10 9.5t-12 12.5l-84 82l-84 -84q-8 -9 -15.5 -16t-12.5 -10t-11.5 -5t-8.5 -2h-9h-7h-135z" />
<glyph unicode="&#x2dc;" horiz-adv-x="749" d="M131 1300v150q0 29 21.5 50.5t52.5 21.5h86q31 0 61 -17l113 -69q13 -9 27 -9h14q9 0 15.5 7t6.5 16v39q0 13 10 23t23 10h84v-150q0 -29 -21.5 -50.5t-52.5 -21.5h-88q-29 0 -59 17l-113 69q-18 9 -28 9h-13q-9 0 -15.5 -7t-6.5 -16v-39q0 -13 -10 -23t-23 -10h-84z" />
<glyph unicode="&#x2000;" horiz-adv-x="992" />
<glyph unicode="&#x2001;" horiz-adv-x="1985" />
<glyph unicode="&#x2002;" horiz-adv-x="992" />
<glyph unicode="&#x2003;" horiz-adv-x="1985" />
<glyph unicode="&#x2004;" horiz-adv-x="661" />
<glyph unicode="&#x2005;" horiz-adv-x="496" />
<glyph unicode="&#x2006;" horiz-adv-x="330" />
<glyph unicode="&#x2007;" horiz-adv-x="330" />
<glyph unicode="&#x2008;" horiz-adv-x="248" />
<glyph unicode="&#x2009;" horiz-adv-x="397" />
<glyph unicode="&#x200a;" horiz-adv-x="110" />
<glyph unicode="&#x2010;" horiz-adv-x="825" d="M123 680v149q0 11 8.5 19t18.5 8h550v-149q0 -11 -8 -19t-18 -8h-551z" />
<glyph unicode="&#x2011;" horiz-adv-x="825" d="M123 680v149q0 11 8.5 19t18.5 8h550v-149q0 -11 -8 -19t-18 -8h-551z" />
<glyph unicode="&#x2012;" horiz-adv-x="825" d="M123 680v149q0 11 8.5 19t18.5 8h550v-149q0 -11 -8 -19t-18 -8h-551z" />
<glyph unicode="&#x2013;" horiz-adv-x="925" d="M123 680v143q0 11 8.5 19t18.5 8h671v-143q0 -11 -8 -19t-18 -8h-672z" />
<glyph unicode="&#x2014;" horiz-adv-x="1087" d="M123 680v143q0 11 8.5 19t18.5 8h819v-143q0 -11 -8.5 -19t-18.5 -8h-819z" />
<glyph unicode="&#x2018;" horiz-adv-x="374" d="M123 1210v326h141q12 0 20.5 -8.5t8.5 -20.5v-200z" />
<glyph unicode="&#x2019;" horiz-adv-x="366" d="M121 1237v201l170 96v-326h-141q-12 0 -20.5 8.5t-8.5 20.5z" />
<glyph unicode="&#x201a;" horiz-adv-x="425" d="M123 176v17h151q12 0 20.5 -9.5t8.5 -21.5v-254l-180 -107v375z" />
<glyph unicode="&#x201c;" horiz-adv-x="681" d="M119 1206v326h141q12 0 20.5 -8.5t8.5 -20.5v-200zM410 1206v326h141q12 0 20.5 -8.5t8.5 -20.5v-200z" />
<glyph unicode="&#x201d;" horiz-adv-x="708" d="M121 1237v201l170 96v-326h-141q-12 0 -20.5 8.5t-8.5 20.5zM412 1237v201l170 96v-326h-142q-12 0 -20 8.5t-8 20.5z" />
<glyph unicode="&#x201e;" horiz-adv-x="735" d="M123 176v17h151q12 0 20.5 -9.5t8.5 -21.5v-254l-180 -107v375zM434 176v17h152q12 0 20 -9.5t8 -21.5v-254l-180 -107v375z" />
<glyph unicode="&#x2022;" horiz-adv-x="542" d="M139 653v244h242q20 0 31.5 -13t11.5 -32v-242h-242q-18 0 -30.5 12.5t-12.5 30.5z" />
<glyph unicode="&#x2026;" horiz-adv-x="1333" d="M123 29v164h162q12 0 20 -9.5t8 -21.5v-162h-161q-12 0 -20.5 9t-8.5 20zM567 29v164h162q12 0 20.5 -9.5t8.5 -21.5v-162h-162q-12 0 -20.5 9t-8.5 20zM1012 29v164h162q12 0 20 -9.5t8 -21.5v-162h-162q-12 0 -20 9t-8 20z" />
<glyph unicode="&#x202f;" horiz-adv-x="397" />
<glyph unicode="&#x205f;" horiz-adv-x="496" />
<glyph unicode="&#x20ac;" horiz-adv-x="1169" d="M0 567v109q0 10 8 18t19 8h135v121h-162v107q0 10 8 18t19 8h135v234q0 145 101.5 246.5t246.5 101.5h551v-149q0 -11 -8.5 -19t-18.5 -8h-524q-64 0 -110 -46t-46 -110v-250h633v-106q0 -27 -26 -27h-607v-121h633v-108q0 -11 -7 -19t-19 -8h-607v-235q0 -64 46 -110 t110 -46h524q11 0 19 -8t8 -18v-150h-551q-144 0 -246 102.5t-102 245.5v219h-162z" />
<glyph unicode="&#x2122;" horiz-adv-x="1153" d="M131 1473v47q0 8 8 8h338v-47q0 -8 -8 -8h-135v-414q0 -10 -8 -10h-54v424h-141zM526 1051v467q0 8 9 8h45q12 0 16 -8l160 -291l157 291q8 8 19 8h43q8 0 8 -8v-467h-51q-8 0 -8 8v371l-133 -252q-5 -9 -13 -9h-47q-7 0 -12 9l-133 252v-371q0 -8 -8 -8h-52z" />
<glyph unicode="&#x25fc;" horiz-adv-x="1024" d="M0 0v1024h1024v-1024h-1024z" />
</font>
</defs>
</svg>
